<svg id="Layer_1" data-name="Layer 1" xmlns="http://www.w3.org/2000/svg" xmlns:xlink="http://www.w3.org/1999/xlink" viewBox="0 0 1000 1000"><defs><style>.cls-1{fill:#0e1826;}.cls-2{fill:url(#linear-gradient);}.cls-3{fill:url(#linear-gradient-2);}.cls-4{fill:url(#linear-gradient-3);}.cls-5{fill:url(#linear-gradient-4);}</style><linearGradient id="linear-gradient" x1="318.9" y1="158.73" x2="319.18" y2="158.46" gradientUnits="userSpaceOnUse"><stop offset="0" stop-color="#f5c187"/><stop offset="0.15" stop-color="#cfa16f"/><stop offset="0.45" stop-color="#8b6643"/><stop offset="0.7" stop-color="#5a3c23"/><stop offset="0.89" stop-color="#3b220f"/><stop offset="1" stop-color="#301808"/></linearGradient><linearGradient id="linear-gradient-2" x1="319.18" y1="158.6" x2="319.2" y2="158.57" xlink:href="#linear-gradient"/><linearGradient id="linear-gradient-3" x1="168.78" y1="847.5" x2="854.47" y2="161.81" xlink:href="#linear-gradient"/><linearGradient id="linear-gradient-4" x1="426.08" y1="316.69" x2="744.93" y2="65.95" gradientUnits="userSpaceOnUse"><stop offset="0" stop-color="#f5c187"/><stop offset="0.16" stop-color="#d5a570"/><stop offset="0.57" stop-color="#89633a"/><stop offset="0.86" stop-color="#593918"/><stop offset="1" stop-color="#47290b"/></linearGradient></defs><rect class="cls-1" x="-4.5" y="-4.5" width="1009" height="1009"/><path class="cls-2" d="M319.17,158.59l-.31,0,.23,0Z"/><polygon class="cls-3" points="319.18 158.59 319.2 158.59 319.17 158.59 319.18 158.59"/><path class="cls-4" d="M862.64,617.44a323,323,0,0,1-89.25,180.88c-57.14,58.1-136.21,94.49-223.91,95.36l-6,0c-296.58,0-409-198.07-409-394C134.46,369.12,191.55,236.16,313,162l1.24-.75.16-.1,4.31-2.29a4.82,4.82,0,0,0,.5-.27h0l.15,0,.28-.05.29,0,.27-.05.25,0c.3-.05.6-.11.9-.19l.13,0,.13,0,.14,0,.13,0,.13,0,.13,0,.14,0,.13,0,.13,0,.14,0,.13,0,.13,0,.14,0,.13,0,.14,0,.13,0,.14,0,.14,0,.13,0,.14,0,.14,0,.14,0,.13,0,.14,0,.14,0,.14,0,.14,0,.14,0,.14,0,.14,0,.13,0,.15,0,.14,0,.14,0,.14,0,.14,0,.14,0,.15,0,.14,0,.14,0,.15,0,.14,0,.15,0h.14l.15,0,.14,0,.14,0H328l.15,0h.14l.15,0h.15l.14,0h.15l.15,0h.15l.14,0h.3l.15,0h.76l.14,0h11.8l.18,0h.69l.17,0h.35l.17,0h.35l.17,0h.18l.17,0h.18l.18,0,.17,0h.18l.18,0,.17,0h.18l.18,0,.17,0h.18l.18,0,.18,0,.18,0h.18l.18,0,.17,0,.18,0,.19,0,.17,0,.19,0,.18,0,.18,0,.18,0,.18,0,.18,0,.18,0,.18,0,.19,0,.18,0,.18,0,.19,0,.18,0,.18,0,.19,0,.18,0,.19,0,.18,0,.18,0,.19,0,.18,0,.19,0,.19,0,.18,0,.19,0,.18,0,.19,0,.19,0,.18,0,.19,0,.19,0,.19,0,.19,0,.18,0,.19,0,.19,0,.19,0,.19,0,.19,0,.19,0,.19,0,.19,0,.19,0,.19,0,.19,0,.2,0,.18,0,.2,0,.19,0,.19,0,.19,0,.2,0,.19,0,.19,0,.19,0,.2,0,.19,0,.19,0,.2,0,.19,0,.2,0,.19,0,.2,0,.2,0,.19,0,.2,0,.19,0,.2,0,.19,0,.2,0,.2,0,.19,0,.2,0,.2,0,.2,0,.2,0,.19,0,.2,0,.2,0,.2,0,.2,0,.2,0,.2.05.2,0,.19,0,.21,0,.2,0,.2.05.2,0,.2,0,.2,0,.2,0,.2,0,.2,0,.21.05.2,0,.2.05.21,0,.2,0,.2,0,.2.05.2,0,.21.05.2,0,.21,0,.2,0,.21.05.2.05.2,0,.21.05.21,0,.2.05.21.05.21,0,.2.05.2,0,.21.05.21.05.21,0,.2.05.21,0,.21.06.2.05.22,0,.2.05.21.05a1.66,1.66,0,0,0,.21.06l.21,0,.21.06.2.05.22,0,.2.06.22.05.2.06a.83.83,0,0,1,.21.06l.21,0,.21.06.22.05.2.06.22,0,.21.06.21.05.21.06.21.06.22.06.21.06.21.05.21.06.22.06.21.06.21,0,.21.06.22.07.21,0,.21.06.22.06.21.06.22.06.21.06.21.06.22.07.21.06.22.06.22.06.21.06.22.06.22.06.21.06.21.07.22.06.22.07.22.06.21.06.22.06.22.07.22.07.21.06.22.06.22.07.22.06.22.07.21.06.22.07.22.07.22.06.22.07.22.06.22.07.22.07.22.06.22.08.22.06.22.07.22.07.22.06.22.07.22.07.22.07.23.07.22.07.22.07.22.07.23.07.22.07.22.07.22.07.23.07.22.07.22.07.22.07.22.07.23.08.22.07.23.07.22.07.23.08.22.07.23.07.22.08.23.07.22.07.22.08.23.07.22.07.23.08.22.08.23.07.23.07.23.08.22.07.23.08.22.08.23.07.23.08.22.07.23.08.23.08.23.08.22.07.23.08.23.08.23.07.23.08.23.08.22.08.23.08.23.08.23.07.23.08.23.08.23.08.23.08.23.08.22.08.24.08.23.08.23.09.23.08.23.08.23.08.23.08.23.08.23.08.23.08.24.09.23.08.23.08.23.08.23.09.23.08.23.08.24.08.23.09a.92.92,0,0,1,.23.09l.23.08.24.08.23.08.23.09.24.08.23.09.23.09.24.08.23.08.24.09.23.08.24.09.23.09.23.08.24.09.23.09.24.08a1.57,1.57,0,0,0,.23.09l.24.09.23.09.24.08.23.09.24.09.23.09.24.09.23.08.24.09.23.09.24.09.24.09.24.09.23.09.24.09.23.09.24.09.24.09.24.09.23.09.24.09.24.09.24.09.23.09.24.09.24.09.24.1.23.09.25.09.23.09.24.09.24.1.24.09.24.09.24.09.23.1.25.09.23.1.24.09.24.09.24.09.24.1.24.1.24.09.24.09.24.1.24.09.24.1.24.09.24.1.24.09.24.1.24.1.25.09.23.1.25.09.24.1.24.1.24.09.24.1.24.1.25.09.24.1.24.1.24.1.24.09.24.1.25.1.24.1.24.1.24.1.25.09.24.11.25.09.24.1.24.1.24.1.25.1.24.1.24.1.25.1.24.1.24.1.25.1.24.1.25.1.24.11.24.1.25.1.24.1.24.1.25.1.24.11.25.1.24.1.25.1.24.11.25.1.24.1.25.1.24.1.25.11.24.1.25.1.24.11.25.1.25.11.24.1.25.1.24.11.25.1.25.11.25.1.24.1.25.11.24.11.25.1.24.11.25.1.25.11.25.1.24.11.25.1.24.11.25.11.25.1.25.11.24.11.25.11.25.1.25.11.24.1.25.11.25.11.25.11.24.1.25.11.25.11.25.11.24.11.25.1.25.11.25.11.25.11.25.11.24.11.25.11.25.11.25.11.25.1.25.11.24.12.25.11.25.1.25.11.25.12.25.11.25.11.25.11.24.1.26.12.24.11.25.11.25.11.25.11.25.11.25.11.25.12.25.11.25.11.25.11.25.11.25.11.25.12.25.11.25.11.25.11.25.12.25.11.25.11.25.12.25.11.25.12.25.11.25.11.25.11.25.12.25.11.25.12.25.11.25.12.26.11.24.11.26.12.25.12.25.11.25.11.25.12.25.11.25.12.26.11.24.12.26.11a1.92,1.92,0,0,0,.25.12l.25.12.25.11.25.12.25.12.25.11.25.12.26.11.25.12.25.12.25.11.25.12c.08,0,.17.07.25.12l.25.11.25.12.26.11.25.13.25.11.25.12.25.11.25.12.26.12.25.12.25.12.25.11.25.12.25.12.26.12.25.12a1.92,1.92,0,0,1,.25.12l.26.12.25.11.25.12.25.12.25.12.25.12.26.12.25.12.25.12.25.12.26.11.25.13.25.12.25.11.25.12.25.13.26.12.25.11.25.12.25.13.26.12.25.12.25.11.25.13.26.12.25.12.25.12.26.12.25.12.25.12.25.12.26.13.25.12.25.12.25.12.26.12.25.12.25.12.25.13.26.12.25.12.25.12.25.12.25.13.25.12.26.12.25.12.25.13.25.12.26.12.25.12.25.13.26.12.25.12.25.13.25.12.26.12.25.13.25.12.25.13.26.12.25.12.25.12.25.13.26.12.25.13.25.12.25.13.26.12.25.12.25.12.25.13.26.13.25.12.25.12.25.13.26.12.25.13.25.12.26.13.25.12.25.13.25.12.26.13.25.12.25.13.25.13.25.12.25.13.26.12.25.13.25.12.25.13.26.12.25.13.25.13.25.12.26.13.24.13.26.12.25.12.25.13.25.13.26.12.25.13.25.13.25.13.25.12.26.13.25.12.25.13.25.13.26.12.24.13.26.13.25.12.25.13.25.13.25.13.25.12.26.13.25.13.25.13.25.12.25.13.25.13.26.13.24.12.26.13.25.13.25.13.25.12.25.13.25.13.25.13.26.12.25.14.25.12.25.13.25.13.25.13.25.13.25.12.25.13.25.13.26.13.24.13.26.12.24.14.26.12.24.13.26.13.25.13.25.13.25.13.25.13.25.13.25.12.25.13.25.13.25.13.25.13.25.13.25.13.24.13.26.13.24.12.26.14.24.12.26.13.25.14.24.12.26.13.24.13.25.13.25.13.25.13.25.13.25.13.25.13.25.13.24.13.26.13.24.13.25.13.25.13.25.13.25.13.25.13.24.13.25.13.25.13.25.13.25.13.25.13.24.13.25.13.25.13.25.13.24.13.25.13.25.13.25.13.24.13.25.13.25.13.25.13.24.13.25.13.25.13.25.13.24.13.25.14.25.12.24.13.25.14.25.13.24.13.25.13.24.13.25.13.25.13.25.13.24.13.25.13.25.13.24.14.25.13.24.12.25.13.24.14.25.13.24.13.25.13.24.13.25.13.24.13.25.13.24.13.25.13.24.13.25.14.24.13.25.13.24.13.25.13.24.13.25.13.24.13.25.14.24.13.24.12.25.13.24.14.24.13.25.13.24.13.25.13.24.13.24.13.24.14.25.13.24.13.24.13.24.13.25.13.24.13.24.13.24.13.25.13.24.13.24.14.24.13.25.13.24.13.24.13.24.13.24.13.24.13.25.14.23.13.25.13.24.13.24.13.24.13.24.13.24.13.24.13.24.13.24.13.24.14.24.13.24.13.24.13.24.13.24.13.24.13.24.13.24.13.24.13.24.13.23.14a1.36,1.36,0,0,1,.24.13l.24.13.24.13.24.13.24.13.24.13.24.13a1.71,1.71,0,0,0,.23.13l.24.13.24.13.24.14.23.12.24.13.24.13.24.14.23.13.24.13.24.13.24.13.23.13.24.13.23.13.24.13.24.13.24.13.23.13.24.13.23.13.24.13.23.13.24.13.23.13.24.14.23.12.24.13.23.13.24.14a1.71,1.71,0,0,1,.23.13l.23.12.24.13.23.14.24.13.23.12.24.13.23.14.24.12a1.71,1.71,0,0,0,.23.13l.23.14.23.12.24.13.23.13.23.14.23.12.24.13.23.13.23.13.23.13.23.13.24.13a1.71,1.71,0,0,0,.23.13l.23.13.23.13a1.71,1.71,0,0,1,.23.13l.23.13.24.13.23.12.23.14.23.12a1.71,1.71,0,0,0,.23.13l.23.13.23.13.23.13.23.13.23.13.23.13.23.13.22.12.24.14.22.12.23.13.23.13a1.71,1.71,0,0,1,.23.13l.23.13.23.13.23.12a1.71,1.71,0,0,0,.23.13l.22.13.23.13.23.13.23.13.22.13.23.12.23.13.22.13.23.13.22.12.23.14.23.12.23.13.22.13.23.13.22.12.23.13.22.13.23.13.22.12.23.13.22.13.23.13.22.12.23.13.22.13.22.13.23.12.22.13.23.13.22.12.22.13.23.13.22.13.22.12.22.13.23.12.22.13.22.13.22.12.22.13.22.13.23.12.22.13.22.12.22.13.22.13.22.12.22.13.22.13.22.12.22.13.22.12.22.13.22.12.22.13.22.13.21.12.23.13.21.12.22.13.22.12.22.13.22.12.21.13.22.12.22.13.22.12.21.13.22.12.21.12.22.13.22.13.21.12.22.12.21.12.22.13.21.13.22.12.22.12.21.13.22.12.21.12.21.13.22.12.21.13.21.12.22.12.21.13.22.12.21.12.21.12.21.13.22.12.21.12.21.12.21.13.21.12.21.12.22.12.21.13.21.12.21.12.21.12.21.13.21.12.21.12.21.12.21.13.21.12.21.12.21.12.21.12.2.12.21.12.21.12.21.13.21.12.2.12.21.12.21.12.2.12.21.12.21.12.21.12.2.12.21.12.2.12.21.12.21.12.2.12.21.12.2.12.2.12.21.12.2.12.21.12.2.12.21.12.2.12.2.12.2.12.2.11.21.12.2.12.2.12.21.12.19.11.21.13.2.11.2.12.2.12.2.12.2.12.2.11.2.12.2.12.2.12.2.11.2.12.2.11a1.06,1.06,0,0,0,.2.12l.19.12.2.12.2.11.2.12.2.12.19.11.2.12a2.12,2.12,0,0,1,.2.12l.2.11.19.12.2.11.19.12.2.11.2.12.19.11.19.12.2.12a1.18,1.18,0,0,1,.19.11l.2.11.19.12.2.12a1.18,1.18,0,0,1,.19.11l.19.11.2.12.19.12a1.18,1.18,0,0,1,.19.11l.2.11.19.11.19.12.19.11.19.12.2.11.19.12.19.11.19.11.19.11.19.11.19.12.19.11.19.11.19.12.19.11.19.11a1.18,1.18,0,0,0,.19.11l.19.12.18.11.19.11.19.11a480789548008.79,480789548008.79,0,0,1,.38.22l.18.12.19.11.19.11.18.11.19.11.18.11.19.11a1.18,1.18,0,0,0,.19.11l.18.12.19.11.18.11.18.1.19.11.18.12.19.11.18.1.18.11.19.12.18.1.18.11.18.11.18.11.19.11.18.11.18.11.18.1.18.11.18.11.18.11.18.11.18.1.18.11.18.11.18.11.18.1.17.11.19.11.17.11.18.1.18.11.17.11.18.1.18.11.17.1.18.11.18.11.17.1.18.11.17.1.18.11.17.1.18.11.17.1.18.1.17.11.17.11a1,1,0,0,1,.17.1l.18.1.17.11.17.1.17.11.18.1.17.1.17.11.17.1.17.1.17.1.17.11.17.1.17.1.17.1.17.11.17.1a1,1,0,0,0,.17.1l.16.1.17.1.17.1.17.11.17.1.16.1.17.1.17.1.16.1.16.1.17.1.17.1.16.1.17.11.16.09.16.1.17.1.16.1.16.1.17.1.16.1.16.1.17.09.16.11.16.09.16.1.16.1.16.09.16.1.16.1.16.1.16.09.16.1.16.1.16.1.16.09.15.1.17.09.15.1.16.1.16.09.15.1.16.09.16.1.15.09.16.1.15.09.16.1.15.09.15.1.16.09.15.09.15.1.16.09.15.1.15.09.16.09.15.09.15.1.16.09.15.09.14.1.16.09.15.09.15.09.14.09.16.1.14.09.15.09.15.09.15.09.15.09.15.09.14.09.15.09.15.09.14.09.15.09.14.09.15.09.15.09.14.09.15.09.14.08.14.09.15.09.14.09.14.09.14.09.15.08.14.09.14.09.15.09.14.08.13.09.14.08.15.09.14.09.13.08.15.09.13.08.14.09.14.09.14.08.14.09.13.08.14.08.14.09.13.09.14.08.14.08.13.09.14.08.13.08.14.09.13.08.13.08.14.08.13.08.13.09.13.08.14.08.13.08.13.08.14.09.13.08.13.08.12.08.14.08.13.08.12.08.13.08.13.08.13.08.13.08.12.08.14.08.12.07.13.09.12.07.13.08.13.08.12.08.13.07.12.08a.57.57,0,0,0,.13.08l.12.08.13.07.12.08.12.07.12.09.13.07.12.08.12.07.12.08.12.07.12.07.12.08.12.08.12.07.12.07.12.08.12.07.11.08.13.07a.41.41,0,0,0,.11.07l.12.08a.41.41,0,0,1,.11.07l.12.07.12.07.11.08.12.07.12.07.11.07.11.07.12.07.12.07.11.08.11.07.11.07.12.07.11.07.11.07.11.07.11.07a.41.41,0,0,1,.11.07.41.41,0,0,1,.11.07l.11.06.11.07.11.07a.41.41,0,0,1,.11.07l.11.07.11.07.1.06.11.07.11.07.11.06.1.07.11.07.11.06.1.07.1.06.11.07.11.06.1.07.1.07.1.06.1.07.11.06.1.06.1.07.1.06.11.06.1.07.1.06.1.06.09.07.11.06.1.06.09.06.1.06.1.07.1.06.09.06.1.06.1.06.09.06.1.06.09.06.1.06.09.06.09.06.1.06.09.05.1.06.09.06.09.06.09.06.1.06.09.05.09.06.08.06.09,0,.1.06.09.05.08.06.09.06.09.06.09.05.09.05.08.06.09,0,.08.06.09.05.09.05.08.06.09.05.08.06.08.05.09,0,.08.05.08.06.09.05.08.05.08.06.08,0,.08.05.08.05.08.05.08.05.08,0,.08.05.08.05.08.05.07.05.08,0,.08,0,.07.05.08.05.08.05.07,0,.08,0,.07.05.07.05.08,0,.07,0,.08.05.07,0,.07.05.07,0,.07.05.08,0,.07.05.07,0,.07.05.06,0,.07,0,.07,0,.07,0,.07.05.07,0,.06,0,.07,0,.06.05.07,0,.06,0,.07,0,.07,0,.06.05.06,0,.07,0,.06,0,.06,0,.07,0,.06,0,.06,0,.06,0,.06,0,.06,0,.06,0,.06,0,.05,0,.07,0,.06,0,0,0,.06,0,.06,0,.05,0,.06,0,0,0,.06,0,.06,0,.05,0,0,0,.06,0,0,0,0,0,.05,0,0,0,.06,0,0,0,.05,0,0,0,0,0,.05,0,0,0,0,0,.05,0,0,0,.05,0,0,0,0,0,.05,0,0,0,.05,0,0,0,0,0,0,0,0,0,0,0,.05,0,0,0,0,0,.05,0,0,0,0,0,0,0,0,0,0,0,0,0,0,0a.05.05,0,0,0,0,0l0,0,0,0,0,0,0,0,0,0,0,0,0,0,0,0,0,0,0,0,0,0,0,0,0,0,0,0,0,0,0,0,0,0,0,0h0l0,0,0,0,0,0,0,0h0a0,0,0,0,0,0,0l0,0h0l0,0,0,0h0l0,0h0l0,0h0s0,0,0,0h0l0,0H661l0,0h0l0,0h.19a0,0,0,0,1,0,0,242.61,242.61,0,0,0-39.77-15.86,268.7,268.7,0,0,0-77-11.15c-122,0-201.27,72.81-201.27,219.49,0,96.35,50.32,215.2,201.27,215.2a342.27,342.27,0,0,0,42.57-2.7c58.37-7.38,102-57.35,102-116.19a16,16,0,0,0-16-16H582.54a83,83,0,1,1,0-165.95H707.09a158.67,158.67,0,0,1,143.72,91.39C867.18,540.35,867.87,579.88,862.64,617.44Z"/><path class="cls-5" d="M798.5,259.1,760.23,297a89.56,89.56,0,0,1-104.49,15.43c-.87-.45-1.74-.91-2.62-1.34h0a.64.64,0,0,0-.1-.06c-6-3.89-262.36-169.22-340.47-149,1.74-.88,4-2.07,6.65-3.52a421.56,421.56,0,0,1,109.13-41.33l.15,0c33-7.11,68.91-10.92,107.69-10.92,42.73,0,83.47,3.62,123.48,14.82,7,2.13,14,4.43,21,6.61,2.14.76,4.29,1.53,6.43,2.34,36.32,13.59,72.27,34.27,108.82,65A43.38,43.38,0,0,1,798.5,259.1Z"/></svg>