<svg id="Layer_1" data-name="Layer 1" xmlns="http://www.w3.org/2000/svg" xmlns:xlink="http://www.w3.org/1999/xlink" viewBox="0 0 1000 1000"><defs><style>.cls-1{fill:#0e1826;}.cls-2{font-size:68.28px;fill:#a57349;stroke:#a57349;stroke-miterlimit:10;stroke-width:2.9px;font-family:false, Chillax;}.cls-3{fill:url(#linear-gradient);}.cls-4{fill:url(#linear-gradient-2);}.cls-5{fill:url(#linear-gradient-3);}.cls-6{fill:url(#linear-gradient-4);}</style><linearGradient id="linear-gradient" x1="344.47" y1="135.33" x2="344.7" y2="135.09" gradientUnits="userSpaceOnUse"><stop offset="0" stop-color="#f5c187"/><stop offset="0.15" stop-color="#cfa16f"/><stop offset="0.45" stop-color="#8b6643"/><stop offset="0.7" stop-color="#5a3c23"/><stop offset="0.89" stop-color="#3b220f"/><stop offset="1" stop-color="#301808"/></linearGradient><linearGradient id="linear-gradient-2" x1="344.71" y1="135.21" x2="344.73" y2="135.19" xlink:href="#linear-gradient"/><linearGradient id="linear-gradient-3" x1="215.54" y1="726.86" x2="804.42" y2="137.98" xlink:href="#linear-gradient"/><linearGradient id="linear-gradient-4" x1="436.52" y1="270.99" x2="710.36" y2="55.64" gradientUnits="userSpaceOnUse"><stop offset="0" stop-color="#f5c187"/><stop offset="0.16" stop-color="#d5a570"/><stop offset="0.57" stop-color="#89633a"/><stop offset="0.86" stop-color="#593918"/><stop offset="1" stop-color="#47290b"/></linearGradient></defs><rect class="cls-1" y="-9" width="1009" height="1009"/><text class="cls-2" transform="translate(233.34 893.73)">THE GRANDIOSE</text><path class="cls-3" d="M344.7,135.21l-.27,0,.2,0Z"/><polygon class="cls-4" points="344.71 135.2 344.73 135.2 344.7 135.21 344.71 135.2"/><path class="cls-5" d="M811.44,529.28a277.33,277.33,0,0,1-76.65,155.34,272.69,272.69,0,0,1-192.3,81.9l-5.17,0c-254.7,0-351.25-170.11-351.25-338.38,0-112.15,49-226.34,153.32-290l1.07-.65.13-.08,3.71-2,.43-.23h0l.13,0,.25,0,.24,0,.23,0,.22,0c.26,0,.52-.1.77-.16l.12,0,.11,0,.11,0,.11,0,.12,0,.11,0,.12,0,.11,0,.11,0,.12,0,.11,0,.12,0,.12,0,.11,0,.12,0,.11,0,.12,0,.12,0,.11,0,.12,0,.12,0,.12,0,.12,0,.11,0,.13,0,.11,0,.12,0,.12,0,.12,0,.12,0,.12,0,.12,0,.13,0,.12,0h.12l.12,0,.12,0H351l.12,0,.12,0h.13l.12,0,.12,0h.12l.13,0H352l.12,0h.25l.13,0h.25l.12,0h.26l.12,0H364.7l.15,0h.3l.15,0h.15l.14,0H366l.15,0h.15l.15,0h.3l.15,0h.15l.16,0h.3l.15,0h.15l.16,0h.15l.15,0h.15l.16,0,.15,0h.16l.15,0,.15,0h.16l.15,0,.15,0,.16,0H370l.15,0,.15,0,.16,0,.16,0,.15,0,.16,0,.15,0,.17,0,.15,0,.16,0,.15,0,.16,0,.16,0,.16,0,.16,0,.15,0,.16,0,.16,0,.16,0,.16,0,.16,0,.16,0,.16,0,.16,0,.16,0,.16,0,.16,0,.17,0,.16,0,.16,0,.16,0,.16,0,.16,0,.16,0,.17,0,.16,0,.16,0,.16,0,.17,0,.16,0,.16,0,.17,0,.16,0,.17,0a.45.45,0,0,1,.16,0l.16,0,.17,0,.16,0,.17,0,.17,0,.16,0,.17,0,.16,0,.17,0,.17,0,.16,0,.17,0a.51.51,0,0,1,.17,0l.16,0,.17,0,.17,0,.17,0,.16,0,.17,0,.17,0,.17,0a1,1,0,0,1,.17,0l.16,0,.17,0,.17,0,.17,0,.17,0,.18,0,.16,0,.17,0,.17,0,.18,0,.17,0,.16,0,.18,0,.17,0,.17,0,.17,0,.17,0,.18,0,.17,0,.17,0,.17,0,.18,0,.17,0,.17,0,.17,0,.18,0,.17,0,.17,0,.18,0,.18,0,.17,0,.17.05.18,0,.17,0,.18.05.17,0,.18,0,.17,0,.18,0,.17,0,.18,0,.18.05.17,0,.18,0,.18,0,.18,0,.17,0,.18,0,.18,0,.17,0,.18,0,.18,0,.18,0,.18,0,.18,0,.18,0,.17,0,.18,0,.18.05.18.05.18,0,.18,0,.18,0,.18,0,.18.05.18.05.18,0,.18,0,.18.05.18.05.18,0,.19,0,.18,0,.18.05.18,0,.19.05.18.05.18,0,.18.05.18,0,.19.05.18.05.18,0,.19.05.18,0,.18.05.18.05.19.06.18.05.19.05.18,0,.19.06.18.05.19,0,.18.05.19.05a1.27,1.27,0,0,0,.18.06l.19.05.19.05.18.06.18,0,.19.06.19.05.18.06.19,0,.19.06.18.05.19.06.19,0,.18.06.19.05.19.06.19.06.18,0,.2.06.18.06.19.05.19.06.19.06.19.06.19.05.18.06.2.06.18.06a1.06,1.06,0,0,1,.19.06l.19,0,.19.06.19.06.19.06.19.06.19.06.19.06.2.06.19.06.19.06.19.06.19.06.19.06.19.06.19.06.19.07a1.06,1.06,0,0,1,.19.06l.2.06.19.06.19.06.2.06.19.07.19.06.19.06.19.06.2.07.19.06.2.07a1.39,1.39,0,0,1,.19.06l.19.06.2.07.19.06.19.06.2.07.19.06.19.07.2.06.19.07.2.06.2.07.19.06.2.07.19.07.2.06.19.07.2.06.19.07.2.07.2.07.19.06.2.07.19.07.2.07.2.06.19.07.2.07.2.06.2.07.19.07.2.07.2.07.2.07.19.07.2.07.2.07.2.07.2.07.19.07.2.07.2.07.2.07.2.07.19.07.2.07.2.07.2.07.2.08.2.07.2.07.2.07.2.07.2.08.2.07.2.07.2.07.2.08.2.07.2.07.21.07.2.08.2.07.2.08.2.07.2.07.2.08.2.07.21.08.2.07.2.08.2.07.2.08.2.07.21.08.2.07.2.08.2.08.21.07.2.08.2.08.21.07.2.08.2.07.2.08.21.08.2.07.2.08.21.08.2.08.21.08.2.08.2.07.21.08.2.08.21.08.2.08.2.07.21.08.21.08.2.08.2.08.21.08.21.08.2.08.2.08.21.08.21.08.2.08.21.08.2.08.21.08.2.09.21.07.21.09.2.08.21.08.21.08.2.08.21.08.21.09.2.08.21.08.21.08.2.09.21.08.21.08.21.08.2.09.21.08.21.09.21.08.2.08.21.09.21.08.2.08.21.09.21.08.21.09.21.08.2.09.21.08.21.09.21.08.21.09.21.08.21.08.21.09.21.09.2.08.22.09.2.08.21.09.21.09.21.08.21.09.21.09.21.08.21.09.21.09.21.09.21.08.21.09.21.09.21.09.21.08.21.09.21.09.21.09.21.08.21.1.21.08.21.09.22.09.2.09.22.09.21.09.21.09.21.09.21.09a1,1,0,0,1,.21.09l.21.09.22.09.2.08.22.1.21.09.21.09.21.09.21.09.22.09.21.09.21.09.21.09.21.09.21.09.22.09.21.09.21.1.21.09.22.09.21.09.21.09.21.1.22.09.21.09.21.09.21.1.22.09.21.1.21.09.22.09.21.09.21.09.22.1.21.09.21.1.22.09.21.09.21.1.22.09.21.09.21.1.22.1.21.09.21.09.22.1.21.09.22.1.21.09.21.09.22.1.21.1.21.09.22.1.21.09.22.1.21.09.22.1.21.1.22.09.21.1.21.09.22.1.21.1.22.1.21.09.22.1.21.1.22.09.21.1.22.1.21.09.22.1.21.1.22.1.21.09.22.1.21.1.22.1.21.09.22.1.21.1.22.1.21.1.22.1.21.09.22.1.22.1.21.1.22.1.21.1.22.1.21.1.22.1.21.1.22.1.22.1.21.1.22.1.21.1.22.1.22.1.21.1.22.1.21.09.22.1.21.1.22.1.22.1.21.11.22.1.22.1.21.1.22.1.21.1.22.1.22.11.22.1.21.09.21.11.22.1.22.1.22.1.21.11.22.1.22.1.21.1.22.1.21.1.22.11.22.1.21.1.22.11.22.1.21.1.22.1.22.1.21.11.22.1.21.11.22.1.22.1.22.11.21.1.22.1.22.1.21.11.22.1.22.11.21.1.22.1.22.11.21.1.22.11.22.1.22.1.21.11.22.1.22.11.21.1.22.11.22.1.21.11.22.1.21.11.22.1.22.1.21.11.22.11.22.1.22.1.21.11.22.11.22.1.21.11.22.1.22.11.21.11.22.1.22.11.21.1.22.11.22.11.22.1.21.11.22.1.22.11.21.11.22.1.22.11.21.11.22.1.22.11.21.1.22.11.22.11.22.1.21.11.22.11.22.11.21.1.22.11.22.11.21.1.22.11.22.11.21.11.22.1.22.11.21.11.22.11.22.11.21.1.22.11.22.11.21.11.22.11.22.1.21.11.22.11.22.11.21.11.22.1.21.11.22.11.22.11.21.11.22.11.22.11.21.11.22.1.22.11.21.11.22.11.22.11.21.11.22.11.21.1.22.11.22.12.21.1.22.11.21.11.22.11.22.11.21.11.22.11.21.11.22.11.22.11.21.11.22.11.21.11.22.11.21.11.22.1.22.12.21.11.22.1.21.12.22.11.21.11.22.11.21.1.22.12.22.11.21.1.22.12.21.11.22.11.21.11.21.11.22.11.21.11.22.11.22.11.21.11.22.11.21.11a1.51,1.51,0,0,0,.22.11l.21.11.22.12.21.1.22.12.21.11.22.11.21.11.21.11.22.11.21.11a1.51,1.51,0,0,0,.22.11l.21.11.22.12.21.11.21.11.22.11.21.11.21.11.22.11.21.11.22.11.21.12.22.11.21.11.21.11.22.11.21.11.21.12.22.11.21.11.22.11.21.11.21.11.21.11.22.12.21.11.22.11.21.11.21.11.21.12.22.11.21.11.21.11.21.11.22.12.21.1.21.12.21.11.22.11.21.12.21.1.21.12.22.11.21.11.21.12.21.11.22.11.21.11.21.11.21.12.21.11.22.11.2.11.22.11.21.11.21.12.21.11.21.11.22.12.21.11.21.11.21.11.21.11.21.12.21.11.21.11.21.11.21.12a1.39,1.39,0,0,1,.21.11l.21.11.22.12.2.1.22.12.2.11.22.11.21.12.21.11.21.11.2.11.22.12.21.11.2.11.22.11.2.12.21.11.21.11.21.11.21.11.21.12.21.11.21.11.21.12.21.11.21.11.2.11.21.12.21.11.21.11.21.12.2.11.21.11.21.11.21.11.21.12.21.11.2.11.21.11.21.12.2.11.21.11.21.11.21.12.21.11.2.11.21.12.21.11.2.11.21.11.21.11.2.12.21.11.21.11.2.11.21.12.21.11.2.11.21.12.21.11.2.11.2.11.21.11.21.11.2.12.21.11.2.11.21.12.2.11.21.11.2.11.21.11.2.12.21.11.2.11.21.11.2.12.2.11.21.11.2.11.21.11.2.12.2.11.21.11.2.12.21.1.2.12.2.11.2.11.21.11.2.12.2.11.2.11.21.11.2.11.2.12.21.11.2.11.2.11.2.11.2.11.21.12.2.11.2.11.2.11.2.11.2.12.2.11.2.11.21.11.2.11.19.11.21.11.2.12.2.11.2.11.2.11.2.11.2.12.2.1.2.12.19.11.2.11.2.11.2.11.2.11.2.12.2.1.2.12.2.11.2.11.2.11.2.11.19.11.2.11.2.11.2.12.2.1.19.12.2.11.2.11.19.11.2.11.2.11.19.11.2.11.2.11.2.11.19.11.2.11.19.11.2.11.2.11.19.11.2.11.19.12.2.1.19.12.2.11.19.1.2.12.19.11.19.1.2.12.19.11.2.1.19.12.2.1.19.11.2.11a1.18,1.18,0,0,0,.19.11l.19.11.19.11.2.11.19.11.19.11.2.11.19.11.19.11.19.11.2.11.19.11.19.1.19.11.19.11.2.11.19.11.19.11.19.11.19.11.19.11.19.11.19.1.19.11.19.11.19.11a1.18,1.18,0,0,1,.19.11l.19.11.19.1.19.11.19.11.19.11.19.11.19.11.19.11.18.1.19.11.19.11.19.11.19.1.18.11.2.11.18.1.19.11.18.11.19.11.19.1a641052730677.9,641052730677.9,0,0,1,.38.22l.18.11.19.1a1.18,1.18,0,0,0,.19.11l.18.11.18.1.19.11.19.11.18.11.19.1.18.11.19.11.18.11.19.1.18.11.19.1.18.11.19.1.18.11.18.11.19.11.18.1.19.1.18.11.18.11.18.11.18.1.19.1.18.11.19.11.18.1.18.1.18.11.18.11.18.1.18.11.19.1.17.11.19.1.18.11.18.1.18.11.18.1.18.11.18.1.17.11.19.1.17.1.18.11.18.1.18.11.18.1.18.1.18.11.17.1.18.11.18.1.18.1.18.1.17.11.18.1.18.11.17.1.18.1.18.1.17.11.18.1.17.1.18.11.18.1.17.1.18.11.17.09.18.11.17.1.18.1.17.11a1,1,0,0,1,.17.1l.18.1.17.1.18.1a1,1,0,0,0,.17.1l.17.1.17.11.18.1.17.1.17.1.17.1.18.11.17.1.17.1.17.1.17.1.18.1.17.1.17.1.17.1.17.1.17.1.17.1.17.1.17.1.17.1.17.1.17.1.17.1.16.1.17.1.17.1.17.1.17.1.17.1.16.1.17.1.17.1.16.09.17.1.17.1.16.1a1,1,0,0,1,.17.1l.17.1.16.09.17.1.16.1.17.1.16.1.17.09.16.1.17.1.16.1.17.09.16.1.16.1.17.09.16.1.16.1.17.09.16.1.16.1.16.09.17.1.16.1.16.09.16.1.16.09.16.1.17.1.16.09.16.1.16.09.16.1.15.09.16.1.16.09.16.1.16.09.16.1.16.1.16.09.15.09.17.1.15.09.16.09.16.1.15.1.16.09.16.09.15.1.16.09.16.09.15.1.16.09.15.09.16.09.15.1.16.09.15.09.16.1.15.09.15.09.16.09.15.09.15.1.16.09.15.09.15.09.16.09.15.1.15.09.15.09.15.09.16.09.15.09.15.09.15.09.15.09.15.09.15.09.15.09.15.09a1.19,1.19,0,0,0,.15.09l.15.09.14.09.15.09.15.09.15.09.15.09.15.09.14.09.15.09.15.09.15.09.14.08.15.09.14.09.15.09.14.08.15.09.15.09.14.09.15.09.14.08.14.09.15.09.14.09.15.08.14.09.14.09.15.08.13.09.15.08.14.09.14.09.14.08.15.09.13.08.15.09.14.09.14.08.14.09.14.08.14.09.14.08.14.08.14.09.14.08.14.09.13.08.14.09.14.08.14.08.14.09.13.08.14.08.13.09.14.08.14.08.13.09.14.08.13.08.14.08.13.09.14.08.13.08.14.08.13.08.14.08.13.09.13.08.13.08.13.08.14.08.13.08.13.08.13.08.13.08.13.08.13.08.14.08.13.08.13.08.13.08a.57.57,0,0,0,.13.08l.13.08.13.08.13.08.12.07.13.09.13.07.13.08.12.08.13.08.13.08.13.08.12.07.13.08.12.08.13.07.12.08.13.08.13.07.12.08.12.08.13.07.12.08.13.08.12.07.12.08.13.07a1.25,1.25,0,0,0,.12.08l.12.07.12.08.13.07a.62.62,0,0,0,.12.08l.12.07.12.08.12.07.12.07.12.08.12.07.12.07.12.08.12.07.11.08.13.07.11.07.12.08.12.07.11.07.12.07.12.07.12.08.11.07.12.07.11.07.12.07.12.07.11.08a.41.41,0,0,1,.11.07l.12.07.11.07.12.07.11.07.12.07.11.07.11.07a.41.41,0,0,1,.11.07l.12.07.11.07.11.07.11.06.11.07.11.07.11.07.11.07a198946874152.12,198946874152.12,0,0,0,.22.14l.11.07.11.06.11.07.11.06a663156247119.74,663156247119.74,0,0,0,.22.14l.1.07.11.06a.41.41,0,0,0,.11.07l.11.07.1.06a.41.41,0,0,0,.11.07l.1.06.11.07.1.07.11.06.1.07.11.06.1.07.11.06.1.06.1.07.11.06.1.07.1.06.1.07.11.06.1.06.1.07.1.06.1.06.1.06.1.07.1.06.1.06.1.06.1.07.1.06a.47.47,0,0,1,.09.06l.1.06.1.06.1.06.09.06.1.06.1.06.09.06.1.06.1.06.09.06.1.06.09.06.1.06.09.06.09.05.1.07.09.05.1.06.09.06.09.06a.47.47,0,0,1,.09.06l.09,0,.1.06.09.06.09.05.08.06.1,0a.47.47,0,0,0,.09.06l.09.06.08.05.1.06.08.06.09.05.09.06.09.05.08.06.09.05.09.06.08.05.09.05.09.06.08,0,.09.06.08.05.09.05.08.06.09.05.08,0,.08.05.08.05.09.06.08.05.08.05.08,0,.08.05.09.05.08.05.08.06.08,0,.08.06.08.05.07.05.09.05.08.05.07,0,.08.06.08,0,.07.05.08,0,.08.05a.18.18,0,0,1,.07.05l.08.05.08,0,.07.05.08,0a.18.18,0,0,0,.07.05l.07.05.08,0,.07.05.08,0,.07.05.07,0,.07.05.08.05.07,0,.07,0,.07.05.07,0,.07,0,.07,0,.07.05.07,0,.07,0,.07.05.07,0,.06.05.07,0,.07,0,.07,0,.06,0,.07.05.07,0,.06,0,.07,0,.06,0,.07.05.06,0,.07,0,.06.05.06,0,.06,0,.07,0,.06,0,.06,0,.07,0,.06,0,.06,0,.06,0,.06,0,.06,0,.06,0,.06,0,0,0,.06,0,.06,0,.06,0,.06,0,.05,0,.06,0,.06,0,0,0,.06,0,.06,0,0,0,.05,0,.06,0,.05,0,.06,0,.05,0,0,0,.06,0,0,0,0,0,.05,0,0,0,.06,0,0,0,.06,0s0,0,.05,0l0,0,0,0,.06,0,0,0,.05,0,0,0,.05,0,0,0,0,0,0,0,0,0,0,0,0,0,0,0,0,0,0,0s0,0,0,0l0,0,0,0,0,0,0,0,0,0,0,0,.05,0,0,0a.05.05,0,0,0,0,0l0,0,0,0,0,0,0,0,0,0,0,0,0,0,0,0,0,0,0,0,0,0,0,0,0,0,0,0,0,0,0,0,0,0,0,0,0,0,0,0,0,0,0,0,0,0,0,0,0,0,0,0,0,0,0,0,0,0,0,0h0l0,0h0l0,0s0,0,0,0l0,0h0l0,0,0,0h0l0,0h0l0,0,0,0h0l0,0h0l0,0s0,0,0,0l0,0h0l0,0h.06l0,0h0l0,0h0s0,0,0,0h.21a208.63,208.63,0,0,0-34.16-13.62,230.8,230.8,0,0,0-66.13-9.57c-104.82,0-172.86,62.53-172.86,188.5,0,82.75,43.21,184.82,172.86,184.82a294.2,294.2,0,0,0,36.55-2.32c50.14-6.34,87.58-49.25,87.58-99.79a13.74,13.74,0,0,0-13.74-13.75H570.88a71.26,71.26,0,1,1,0-142.52h107a136.31,136.31,0,0,1,123.44,78.48C815.34,463.07,815.94,497,811.44,529.28Z"/><path class="cls-6" d="M756.36,221.53l-32.87,32.58a76.56,76.56,0,0,1-75.23,19.08,77.49,77.49,0,0,1-14.5-5.82l-2.25-1.16h0l-.09,0C626.26,262.82,406.09,120.83,339,138.22c1.49-.75,3.39-1.78,5.71-3a362,362,0,0,1,93.72-35.49.27.27,0,0,1,.12,0,439.5,439.5,0,0,1,92.49-9.38c36.71,0,71.69,3.1,106.05,12.73,6,1.83,12,3.8,18,5.67,1.83.65,3.68,1.32,5.52,2,31.18,11.68,62.06,29.44,93.45,55.87A37.24,37.24,0,0,1,756.36,221.53Z"/></svg>