<svg id="Layer_1" data-name="Layer 1" xmlns="http://www.w3.org/2000/svg" xmlns:xlink="http://www.w3.org/1999/xlink" viewBox="0 0 4617 1000"><defs><style>.cls-1{fill:#a57349;}.cls-2{fill:url(#linear-gradient);}.cls-3{fill:url(#linear-gradient-2);}.cls-4{fill:url(#linear-gradient-3);}.cls-5{fill:url(#linear-gradient-4);}</style><linearGradient id="linear-gradient" x1="412.13" y1="205.34" x2="412.37" y2="205.1" gradientUnits="userSpaceOnUse"><stop offset="0" stop-color="#f5c187"/><stop offset="0.15" stop-color="#cfa16f"/><stop offset="0.45" stop-color="#8b6643"/><stop offset="0.7" stop-color="#5a3c23"/><stop offset="0.89" stop-color="#3b220f"/><stop offset="1" stop-color="#301808"/></linearGradient><linearGradient id="linear-gradient-2" x1="412.37" y1="205.23" x2="412.4" y2="205.2" xlink:href="#linear-gradient"/><linearGradient id="linear-gradient-3" x1="282.51" y1="800.04" x2="874.55" y2="208" xlink:href="#linear-gradient"/><linearGradient id="linear-gradient-4" x1="504.68" y1="341.73" x2="779.98" y2="125.23" gradientUnits="userSpaceOnUse"><stop offset="0" stop-color="#f5c187"/><stop offset="0.16" stop-color="#d5a570"/><stop offset="0.57" stop-color="#89633a"/><stop offset="0.86" stop-color="#593918"/><stop offset="1" stop-color="#47290b"/></linearGradient></defs><path class="cls-1" d="M1237.65,357.46V372H1144.9V642.11h-15.39V372.42h-93.17v-15Z"/><path class="cls-1" d="M1151.18,648.39h-28V378.7h-93.17V351.18h213.86v27.09h-92.74Zm-15.39-12.55h2.83V365.71h92.75v-2H1042.61v2.4h93.18Z"/><path class="cls-1" d="M1308.59,642.11h-15.81V357.46h15.81V492.52H1491.1V357.46h15.38V642.11H1491.1V507.48H1308.59Z"/><path class="cls-1" d="M1512.76,648.39h-27.94V513.76h-170V648.39H1286.5V351.18h28.37V486.24h170V351.18h27.94Zm-15.39-12.55h2.83V363.74h-2.83V498.8H1302.31V363.74h-3.26v272.1h3.26V501.2h195.06Z"/><path class="cls-1" d="M1789,642.11H1620.17q-18.39,0-18.38-18V375.41q0-18,18.38-18h164.55V372H1617.6V492.52h159.85v14.53l-159.85.43V627.15H1789Z"/><path class="cls-1" d="M1795.27,648.39h-175.1c-15.67,0-24.66-8.83-24.66-24.23V375.41c0-15.4,9-24.23,24.66-24.23H1791v27.09H1623.88v108h159.85v27.07l-159.85.43V620.88h171.39ZM1611.33,365.93c-2.3,1.82-3.26,4.86-3.26,9.48V624.16c0,8.51,3.28,11.68,12.1,11.68h162.55v-2.41H1611.33V501.22l159.85-.43v-2H1611.33Zm.29-.22h166.82v-2H1620.17C1616.33,363.74,1613.54,364.33,1611.62,365.71Z"/><path class="cls-1" d="M2098.86,646.39q-58.56,0-99.59-43.17t-41-103.86q0-59.4,41-102.58t99.59-43.17a135.44,135.44,0,0,1,63.9,15.6,115.84,115.84,0,0,1,46.8,44.67L2196.31,422a101.09,101.09,0,0,0-41.89-39.54,120.73,120.73,0,0,0-56-13.89q-51.29,0-87.62,38.47t-36.33,92.32q0,54.28,36.12,93T2098.86,631a130.15,130.15,0,0,0,57.06-12.82q26.7-12.82,39.11-29.49V511.75h15.38v82.92q-15.37,21-44.87,36.33T2098.86,646.39Z"/><path class="cls-1" d="M2098.86,652.67c-40.65,0-75.68-15.19-104.14-45.13S1952,541.3,1952,499.36c0-41.08,14.39-77.05,42.76-106.91s63.5-45.12,104.14-45.12a142.27,142.27,0,0,1,66.82,16.32,122.6,122.6,0,0,1,49.29,47l3.13,5.32-24,14.69-3.23-5.54A95.36,95.36,0,0,0,2151.54,388a115,115,0,0,0-53.11-13.19c-32.24,0-60.18,12.28-83,36.5s-34.62,53.93-34.62,88c0,34.38,11.58,64.22,34.43,88.68,23,24.68,50.41,36.68,83.67,36.68a124.52,124.52,0,0,0,54.34-12.2c15.91-7.64,27.86-16.37,35.55-26V505.48h27.94v91.25l-1.22,1.66c-10.78,14.67-26.6,27.52-47,38.18S2124.56,652.67,2098.86,652.67Zm0-292.78c-37.06,0-69,13.87-95,41.21s-39.3,60.5-39.3,98.26c0,38.61,13.22,72.1,39.3,99.53s58,41.22,95,41.22c23.65,0,45.11-4.94,63.77-14.67,17.94-9.36,31.89-20.41,41.51-32.87V518h-2.83v72.74l-1.25,1.66c-8.84,11.89-22.78,22.46-41.42,31.41a137,137,0,0,1-59.78,13.44c-36.42,0-67.65-13.69-92.85-40.68s-37.8-59.57-37.8-97.24c0-37.39,12.8-69.91,38-96.63s56.35-40.44,92.18-40.44a127.43,127.43,0,0,1,58.87,14.59,107.79,107.79,0,0,1,41,36.51l2.54-1.56a109.84,109.84,0,0,0-41-37.06A129.9,129.9,0,0,0,2098.86,359.89Z"/><path class="cls-1" d="M2301.88,642.11h-15.39V357.46h83.35q43.59,0,70.95,20.09t27.35,59q0,32.06-19.66,52.36t-54.28,25.43a68.55,68.55,0,0,1,20.09,10.9q9,7,17.52,19.87t13.47,21.8q4.91,9,14.74,28.64l23.51,46.58h-17.1l-21.8-43.17q-6.84-13.23-9.61-18.8t-9.19-16.24a120.54,120.54,0,0,0-10.47-15.39c-2.72-3.13-6.41-7-11.12-11.75s-9.33-8-13.89-9.83a126.69,126.69,0,0,0-16-5.13,80,80,0,0,0-19.88-2.35h-52.57Zm68-270.12h-67.53V504.91H2369q37.61,0,60.48-17.31t22.87-50.22q0-32.47-23.3-48.93T2369.84,372Z"/><path class="cls-1" d="M2493.73,648.39h-31.16L2439,601.77c-4.47-8.64-7.71-15-9.63-18.83-1.8-3.59-4.82-8.91-9-15.81a114.17,114.17,0,0,0-9.84-14.52c-2.64-3.05-6.27-6.89-10.8-11.41a37.31,37.31,0,0,0-11.82-8.46,121,121,0,0,0-15.21-4.86,74.35,74.35,0,0,0-18.32-2.15h-46.29V648.39h-27.95V351.18h89.63c30.28,0,55.41,7.17,74.66,21.31,19.86,14.58,29.92,36.13,29.92,64,0,23-7.21,42-21.43,56.72-10.4,10.74-23.78,18.56-39.93,23.36,1.75,1.15,3.46,2.37,5.11,3.67,6.47,5.08,12.82,12.26,18.87,21.33,5.77,8.67,10.39,16.16,13.74,22.26s8.18,15.52,14.86,28.85Zm-23.44-12.55h3l-18.91-37.49c-6.52-13-11.45-22.59-14.65-28.45s-7.61-13-13.18-21.33c-5.31-8-10.76-14.15-16.18-18.42a62.86,62.86,0,0,0-18.26-9.9l-24.23-8.39,4.83-.71c-1.25,0-2.5,0-3.77,0H2296V365.71h73.81c25.13,0,46.27,5.93,62.81,17.61,17.23,12.17,26,30.36,26,54.06,0,23.91-8.53,42.49-25.36,55.23a81,81,0,0,1-13.81,8.4A73.87,73.87,0,0,0,2444,484.52c12-12.43,17.89-28.13,17.89-48,0-24-8.11-41.67-24.79-53.92-17.05-12.52-39.67-18.87-67.23-18.87h-77.07v272.1h2.83V513.17h58.85a86.94,86.94,0,0,1,21.43,2.54,134.07,134.07,0,0,1,16.83,5.4c5.34,2.17,10.71,5.94,16,11.21,4.74,4.73,8.58,8.8,11.42,12.08,3,3.47,6.62,8.79,11.11,16.27,4.3,7.17,7.47,12.77,9.42,16.65s5.12,10.1,9.58,18.74Zm-161.71-137.2H2369c23.56,0,42.63-5.4,56.69-16,13.71-10.38,20.38-25.17,20.38-45.22,0-19.66-6.75-34-20.64-43.81-14.38-10.15-33.08-15.3-55.57-15.3h-61.26Z"/><path class="cls-1" d="M2527.55,642.11,2609.19,384q9.39-30.34,40.17-30.35,30.34,0,39.75,30.35l81.64,258.15h-15.39L2728,554.92l-157.29.43-27.36,86.76Zm95.31-253.88L2575,540.82H2723.3l-47.87-152.59q-6.41-20.52-26.07-20.51Q2629.26,367.72,2622.86,388.23Z"/><path class="cls-1" d="M2779.32,648.39h-28.57l-27.35-87.18-148.07.4L2548,648.39h-29l84.22-266.33c7-22.7,23-34.73,46.16-34.73,22.88,0,38.7,12,45.75,34.77ZM2760,635.84h2.21l-79-250c-5.5-17.72-16.22-26-33.77-26-17.84,0-28.7,8.24-34.18,25.92l-79.06,250h2.64l27.35-86.76,166.5-.45Zm-28.12-88.74H2566.44l50.43-160.74c5.1-16.3,16.33-24.92,32.49-24.92,15.88,0,27,8.62,32.07,24.92Zm-148.31-12.56h131.21l-45.31-144.43c-3.43-11-9.81-16.12-20.08-16.12-10.7,0-17,5-20.51,16.11h0Z"/><path class="cls-1" d="M2850.24,642.11h-14.53V387.8q0-16.23,8.76-25.21t22.44-9q20.09,0,29.49,20.94L3011,617.75q6.4,15,18.38,15,14.52,0,14.53-20.09V357.46h15V611.77q0,15.81-8.55,25a27.49,27.49,0,0,1-20.94,9.19q-21,0-30.78-20.94L2884,381q-6.42-14.54-17.1-14.54a14.84,14.84,0,0,0-12.18,5.56q-4.49,5.56-4.49,15.39Z"/><path class="cls-1" d="M3029.33,652.24c-16.32,0-28.92-8.49-36.46-24.56L2878.26,383.5c-4.76-10.79-9.72-10.79-11.35-10.79a8.59,8.59,0,0,0-7.3,3.23c-2.05,2.54-3.09,6.39-3.09,11.44v261h-27.09V387.8c0-12.47,3.55-22.43,10.55-29.6s16.1-10.87,26.93-10.87c15.78,0,28,8.51,35.2,24.6l114.57,243.25,0,.1c4.28,10,9.25,11.15,12.61,11.15,2.88,0,8.25,0,8.25-13.81V351.18h27.52V611.77c0,12.13-3.44,22-10.23,29.28A33.73,33.73,0,0,1,3029.33,652.24ZM2889.72,378.36l114.52,244c5.55,11.83,13.52,17.33,25.09,17.33a21.32,21.32,0,0,0,16.35-7.19c4.62-5,6.86-11.74,6.86-20.72v-248h-2.4V612.62c0,22.94-13,26.37-20.81,26.37-7.34,0-17.46-3.24-24.11-18.66l-114.54-243.2c-5.29-11.76-12.84-17.24-23.77-17.24-7.42,0-13.29,2.32-17.94,7.08s-7,11.62-7,20.83v248h2V387.38c0-8,2-14.5,5.89-19.33a21.14,21.14,0,0,1,17.06-7.89C2873.64,360.16,2883.06,363.32,2889.72,378.36Z"/><path class="cls-1" d="M3392.62,496.79q0,66.68-44,106t-109.84,39.32h-84.63V357.46h88.47q67.09,0,108.57,38.47T3392.62,496.79Zm-15.81,0q0-55.55-37.61-90.18T3242.6,372h-72.66V627.15h68.82q58.11,0,98.09-35.26T3376.81,496.79Z"/><path class="cls-1" d="M3238.76,648.39h-90.91V351.18h94.75c46.16,0,84.12,13.51,112.84,40.14s43.46,62.25,43.46,105.47c0,46.11-15.51,83.35-46.12,110.68C3322.39,634.62,3284,648.39,3238.76,648.39Zm-78.35-12.55h78.35c42.09,0,77.64-12.7,105.66-37.73,27.82-24.85,41.93-58.94,41.93-101.32,0-39.58-13.28-72-39.45-96.26-26.32-24.42-61.41-36.79-104.3-36.79h-82.19Zm78.35-2.41h-75.09V365.71h78.93c40.76,0,74.69,12.21,100.85,36.28s39.64,56.11,39.64,94.8c0,41.59-14.16,75.17-42.09,99.81C3313.3,621,3278.9,633.43,3238.76,633.43Zm-62.54-12.55h62.54c37,0,68.59-11.34,93.93-33.69,25.11-22.16,37.84-52.57,37.84-90.4,0-35-12-63.82-35.58-85.56-23.77-21.87-54.84-33-92.35-33h-66.38Z"/><path class="cls-1" d="M3467.42,357.46h15.81V642.11h-15.81Z"/><path class="cls-1" d="M3489.51,648.39h-28.37V351.18h28.37Zm-15.82-12.55H3477V363.74h-3.26Z"/><path class="cls-1" d="M3696.51,646q-59.85,0-101.51-42.53t-41.68-104.07q0-60.69,41.89-103T3696.51,354q59.84,0,101.51,42.31t41.67,103q0,61.54-41.89,104.07T3696.51,646Zm0-15.39q52.56,0,89.75-38.25t37.19-93q0-54.27-37-92.32t-90-38q-52.58,0-89.76,38t-37.18,92.32q0,55.14,37,93.17T3696.51,630.57Z"/><path class="cls-1" d="M3696.51,652.24c-41.47,0-77.13-14.94-106-44.41s-43.46-65.93-43.46-108.47c0-42,14.7-78.13,43.7-107.42s64.59-44.18,105.76-44.18c41.45,0,77.1,14.87,106,44.19S3846,457.38,3846,499.36c0,42.54-14.7,79-43.69,108.48S3737.67,652.24,3696.51,652.24Zm0-291.92c-37.69,0-70.27,13.61-96.84,40.45s-40.07,60-40.07,98.59c0,39.14,13.42,72.68,39.88,99.68s59.07,40.64,97,40.64c37.67,0,70.25-13.68,96.82-40.65s40.08-60.54,40.08-99.67c0-38.57-13.41-71.74-39.87-98.6S3734.47,360.32,3696.51,360.32Zm0,276.53c-36.94,0-68.72-13.44-94.48-39.94s-38.74-59.27-38.74-97.55c0-37.71,13.11-70.25,39-96.71s57.61-39.93,94.25-39.93c36.92,0,68.7,13.44,94.47,39.94s38.75,59,38.75,96.7c0,38-13.11,70.74-39,97.34S3733.15,636.85,3696.51,636.85Zm0-261.57c-33.13,0-61.82,12.16-85.27,36.15s-35.4,53.61-35.4,87.93c0,34.9,11.85,64.77,35.2,88.8s52.05,36.14,85.47,36.14c33.12,0,61.81-12.23,85.25-36.36s35.41-54,35.41-88.58c0-34.32-11.84-63.91-35.2-87.95S3729.91,375.28,3696.51,375.28Z"/><path class="cls-1" d="M3985,644.68q-32.91,0-59-15t-37.18-41.89l13.25-6.84a74.28,74.28,0,0,0,31.84,35.91q22,12.81,51.07,12.82,33.35,0,55.14-17.31t21.8-46.38a50.27,50.27,0,0,0-15.6-37.18q-6.2-5.55-18.17-10.47a187,187,0,0,0-20.51-7.27q-8.55-2.34-23.94-5.77-17.1-3.84-26.5-6.41a181.36,181.36,0,0,1-23.29-8.55q-13.89-6-21.16-13.25T3900,457.9q-5.57-12-5.56-27.78,0-31.64,25.65-53.43t60.69-21.8q29.91,0,54.07,14.54a85,85,0,0,1,35.26,41l-12.82,7.26q-10.26-23.07-30.35-35.47t-46.59-12.4q-28.2,0-49.15,17.53t-20.94,42.74a48.05,48.05,0,0,0,4.7,21.8,49.28,49.28,0,0,0,10.9,15q6.2,5.55,18.38,10.47t20.3,7.26q8.12,2.36,23.93,5.77,17.1,4.28,26.29,6.84a200.57,200.57,0,0,1,23.29,8.55q14.11,6,21.38,13.25t12.82,19.23q5.55,12,5.55,27.78,0,35.49-26.07,57.06T3985,644.68Z"/><path class="cls-1" d="M3985,651c-23,0-43.85-5.32-62.1-15.8-18.54-10.63-32-25.75-39.87-44.93l-2.19-5.33,24.38-12.59,2.64,6.22a67.58,67.58,0,0,0,29.23,32.94c13.63,7.94,29.75,12,47.91,12,20.67,0,37.91-5.36,51.24-16,13.07-10.38,19.42-23.94,19.42-41.46a43.64,43.64,0,0,0-4.06-19.25,43.2,43.2,0,0,0-9.46-13.26c-3.57-3.2-9.08-6.34-16.35-9.34a180.74,180.74,0,0,0-19.8-7c-5.57-1.53-13.53-3.45-23.63-5.7-11.48-2.58-20.48-4.76-26.79-6.48a188.64,188.64,0,0,1-24.13-8.84c-10.09-4.35-17.65-9.12-23.11-14.58s-10.08-12.41-14.08-21-6.13-19-6.13-30.42c0-22.92,9.37-42.5,27.85-58.21,18.19-15.46,40-23.29,64.76-23.29,21,0,40.28,5.19,57.3,15.43a91.57,91.57,0,0,1,37.82,44l2.15,5.14-23.69,13.43-2.81-6.33c-6.28-14.13-15.67-25.12-27.91-32.68s-26.89-11.46-43.29-11.46c-17.44,0-32.21,5.25-45.12,16.06-12.58,10.53-18.69,22.94-18.69,37.93a42,42,0,0,0,4,19,43.39,43.39,0,0,0,9.48,13.1c3.57,3.2,9.13,6.34,16.53,9.32,7.93,3.2,14.55,5.58,19.7,7.06s13.16,3.43,23.52,5.67l.2,0c11.62,2.91,20.27,5.16,26.44,6.88a208.56,208.56,0,0,1,24.07,8.82c10.24,4.35,17.88,9.12,23.35,14.59s10.08,12.42,14.08,21c4.07,8.79,6.14,19,6.14,30.42,0,25.5-9.54,46.33-28.35,61.9C4037.23,643.21,4013.45,651,3985,651Zm-88-60.28a78.73,78.73,0,0,0,32.13,33.59c16.32,9.38,35.12,14.13,55.85,14.13,25.45,0,46.53-6.78,62.68-20.14s23.79-30.34,23.79-52.23c0-9.56-1.67-18-5-25.14s-7.27-13.13-11.57-17.44-10.77-8.24-19.38-11.9a195.78,195.78,0,0,0-22.53-8.28c-6-1.66-14.72-3.94-26-6.77-10.59-2.29-18.75-4.26-24.26-5.86a221.25,221.25,0,0,1-20.9-7.47c-8.89-3.58-15.51-7.38-20.23-11.62a56.09,56.09,0,0,1-12.32-16.83,54.56,54.56,0,0,1-5.36-24.6c0-18.68,7.8-34.68,23.19-47.56,15.06-12.6,33-19,53.18-19,18.76,0,35.54,4.49,49.89,13.33A82.71,82.71,0,0,1,4060,409l2-1.14a78.82,78.82,0,0,0-30.4-33c-15-9-32.14-13.63-50.83-13.63-21.73,0-40.78,6.83-56.62,20.31s-23.44,29.31-23.44,48.64c0,9.58,1.67,18,5,25.13,3.38,7.28,7.27,13.15,11.57,17.44s10.71,8.27,19.2,11.93a177.35,177.35,0,0,0,22.46,8.25c6.13,1.68,15,3.81,26.23,6.35,10.29,2.29,18.44,4.25,24.22,5.84a192.8,192.8,0,0,1,21.24,7.51c8.72,3.59,15.25,7.38,20,11.6A56.56,56.56,0,0,1,4068.22,566c0,21.3-8.14,38.56-24.18,51.29-15.6,12.4-35.46,18.68-59,18.68-20.41,0-38.65-4.6-54.23-13.68a80.78,80.78,0,0,1-31.58-32.77Z"/><path class="cls-1" d="M4338.9,642.11H4170.07q-18.39,0-18.38-18V375.41q0-18,18.38-18h164.55V372H4167.5V492.52h159.86v14.53l-159.86.43V627.15h171.4Z"/><path class="cls-1" d="M4345.17,648.39h-175.1c-15.67,0-24.66-8.83-24.66-24.23V375.41c0-15.4,9-24.23,24.66-24.23H4340.9v27.09H4173.78v108h159.85v27.07l-159.85.43V620.88h171.39ZM4161.23,365.93c-2.3,1.82-3.26,4.86-3.26,9.48V624.16c0,8.51,3.28,11.68,12.1,11.68h162.55v-2.41H4161.23V501.22l159.85-.43v-2H4161.23Zm.29-.22h166.82v-2H4170.07C4166.23,363.74,4163.44,364.33,4161.52,365.71Z"/><path class="cls-2" d="M412.37,205.22l-.27,0,.2,0Z"/><polygon class="cls-3" points="412.38 205.22 412.4 205.22 412.37 205.22 412.38 205.22"/><path class="cls-4" d="M881.61,601.4a278.79,278.79,0,0,1-77.06,156.17,274.11,274.11,0,0,1-193.33,82.34l-5.2,0c-256.07,0-353.13-171-353.13-340.19C252.89,387,302.18,272.19,407,208.16l1.08-.65a.6.6,0,0,1,.13-.09l3.73-2c.14-.08.28-.16.43-.23h0l.13,0,.25,0,.24,0,.24,0,.21,0c.26,0,.52-.1.78-.16l.11,0,.12,0,.11,0,.12,0,.11,0,.11,0,.12,0,.11,0,.12,0,.11,0,.12,0,.12,0,.11,0,.12,0,.11,0,.12,0,.12,0,.12,0,.12,0,.11,0,.12,0,.12,0,.12,0,.12,0,.12,0,.12,0,.12,0,.12,0,.12,0,.12,0,.12,0,.12,0,.12,0,.13,0,.12,0h.12l.12,0,.13,0,.12,0H419l.13,0h.12l.13,0h.12l.13,0,.12,0h.13l.12,0h.38l.13,0h.26l.12,0h.39l.12,0h12.3l.15,0h.45l.15,0h.45l.16,0h.15l.15,0,.15,0h.31l.15,0h.15l.16,0,.15,0h.16l.15,0,.16,0H437l.16,0,.15,0h.16l.15,0,.16,0,.16,0,.15,0,.16,0,.15,0,.16,0,.16,0,.16,0,.16,0,.15,0,.16,0,.16,0,.16,0,.16,0,.15,0,.16,0,.16,0,.16,0,.16,0,.16,0,.16,0,.16,0,.17,0,.15,0,.16,0,.17,0,.16,0,.16,0,.16,0,.17,0,.16,0,.16,0,.16,0,.17,0,.16,0,.16,0,.16,0,.17,0,.16,0,.17,0,.16,0,.16,0,.17,0,.17,0,.16,0,.16,0,.17,0,.16,0a.47.47,0,0,1,.17,0l.17,0,.17,0a.76.76,0,0,0,.16,0l.17,0,.16,0,.17,0,.17,0,.16,0,.17,0,.17,0,.17,0,.17,0,.17,0,.17,0,.16,0,.17,0,.17,0,.17,0,.17,0,.17,0,.17,0,.17,0,.17,0,.17,0,.17,0,.17,0,.17,0,.17,0,.18,0,.17,0,.17,0,.17,0,.17,0,.18,0,.17,0,.17,0,.18,0,.17,0,.17,0,.18,0,.17,0,.17,0,.17,0,.18,0,.17,0,.18,0,.17,0,.18,0,.18,0,.17,0,.17.05.18,0,.18,0,.17,0,.18,0,.18,0,.17,0,.18.05.17,0,.18,0,.18,0,.18,0,.17,0,.18,0,.18,0,.18,0,.18,0,.17.05.18,0,.18,0,.18,0,.18,0,.18,0,.18,0,.18,0,.18.05.18,0,.18.05.18.05.18,0,.18,0,.18,0,.18,0,.18.05.19.05.18,0,.18,0,.18.05.18.05.18,0,.19.05.18,0,.18.06.19.05.18,0,.18.06.19,0,.18.05.18,0,.19.06.18,0,.18.06.19.05.18.05.19,0,.18.05.19,0,.18.06.19.05.18.05.19,0,.18.06.19.05.19,0,.18.05.19.06.19,0,.18.05a1.06,1.06,0,0,0,.19.06l.18,0,.19.06.19.05.19.06.18.05.19.06.19.05.19.06.18.05.19.06.19.06.19.05.19.06.19.06.19,0,.19.06.19.06.18.05.19.06.19.06.2.06.18.06.2.06.18.05.2.06.19.06.18.06.2.06.19.06.19.06.19.06.19.06.2.06.19.06.19.06.19.06.19.06.2.06.19.07.19.06.19.06.19.06.2.06.19.07a.6.6,0,0,1,.19.06l.2.06.19.06.19.06.2.07.19.06.2.07.19.06.2.06.19.06.19.07.2.06.19.07.2.06.2.07.19.06.19.07.2.06.2.07.19.06.2.07.2.06.19.07.2.07.19.06.2.07.2.07.19.07.2.06.2.07.2.07.19.07.2.06.2.07.2.07.19.07.2.07.2.06.2.07.2.07.19.07.2.07.2.07.2.07.2.07.2.07.2.07.2.07.19.07.2.07.21.07.2.07.2.07.19.07.2.08.2.07.21.07.2.07.2.07.2.07.2.08.2.07.2.07.2.07.2.08.21.07.2.07.2.08.2.07.2.07.2.08.2.07.21.08.2.07.2.07.2.08.21.08.2.07.2.07.21.08.2.08.2.07.2.08.21.07.2.08.2.08.21.07.2.08.2.07.21.08.2.08.21.07.2.08.2.08.21.08.2.07.21.08.2.08.21.08.2.08.21.08.2.08.21.07.2.08.21.08.2.08.21.08.21.08.2.08.21.08.2.08.21.08.21.08.2.08.21.08.21.08.2.08.21.08.21.08.2.08.21.08.21.09.21.07.2.09.21.08.21.08.2.08.21.09.21.08.21.08.2.08.21.09.21.08.21.08.21.09.21.08.21.08.2.08.21.09.21.08.21.09.21.08.21.09.21.08.2.08.21.09.21.08.21.09.21.08.21.09.21.08.21.09.21.08.21.09.21.09.21.08.21.09.21.08a1.89,1.89,0,0,0,.21.09l.21.09.21.08.21.09.21.09.21.08.21.09.21.09.21.09.21.08.21.09.21.09.22.08.21.1.21.08.21.09.21.09.21.09.21.09.22.08a1.89,1.89,0,0,0,.21.09l.21.09.21.09.21.09.22.09.21.09.21.09.21.09.21.09.22.09.21.09.21.09.21.09.22.09.21.09.21.09.21.09.22.09.21.09.21.1.21.08.22.09.21.1.21.09.21.09.22.09.21.09.22.09.21.1.21.09.22.09.21.09.21.1.22.09.21.09.22.1.21.09.21.09.22.09.21.1.21.09.22.09.21.1.22.09.21.1.22.09.21.09.21.1.22.09.21.1.22.09.21.1.22.09.21.1.22.09.21.1.22.09.21.1.22.09.21.1.22.09.21.1.22.09.21.1.22.09.21.1.22.1.22.09.21.1.22.1.21.09.22.1.21.1.22.09.21.1.22.1.22.1.21.09.22.1.21.1.22.09.21.1.22.1.22.1.21.1.22.1.22.09.21.1.22.1.22.1.21.09.22.1.22.11.21.09.22.1.22.1.21.1.22.1.22.1.21.1.22.09.22.11.21.1.22.1.22.1.21.1.22.1.21.1.22.1.22.1.21.1.22.1.22.1a1.36,1.36,0,0,1,.21.1l.22.1.22.1.22.1.21.1.22.1.22.1.22.11.22.1.21.1.22.1.22.1.21.1.22.1.22.11.22.1.21.1.22.1.22.1.22.11.21.1.22.1.22.1.22.11.21.1.22.1.22.1.22.11.21.1.22.1.22.11.22.1.22.1.21.11.22.1.22.1.21.11.22.1.22.1.22.11.22.1.21.11.22.1.22.1.22.1.22.11.22.1.21.11.22.1.22.11.22.1.22.11.21.1.22.11.22.1.22.11.22.1.21.11.22.1.22.11.22.1.22.11.21.1.22.11.22.1.21.11.22.11.22.1.22.11.22.11.22.1.21.1.22.11.22.11.22.1.22.11.21.11.22.1.22.11.22.11.22.1.21.11a1.51,1.51,0,0,1,.22.11l.22.1.22.11.22.11.21.11.22.1.22.11.22.1a1.51,1.51,0,0,0,.22.11l.22.11.21.11a1.51,1.51,0,0,1,.22.11l.22.1.22.11.22.11.21.1.22.11.22.11.22.11.22.1.21.11.22.11.22.11.22.11.22.11.21.1.22.11.22.11.21.11.22.11.22.11.22.1a1.51,1.51,0,0,0,.22.11l.22.11.21.11.22.11.22.11.21.11.22.1.22.11a1.51,1.51,0,0,0,.22.11l.22.11.21.11.22.11.22.11.21.11.22.11.22.11.22.11.22.11.21.11.22.11.22.1.21.11.22.11.22.12.22.11.21.1.22.11a1.51,1.51,0,0,0,.22.11l.22.12.21.1.22.11a1.51,1.51,0,0,0,.22.11l.21.11.22.12.22.1.21.11.22.12.22.11.21.11.22.1.22.12.21.11.22.11.22.11.21.11.22.11.22.11.21.11.22.11.22.11.21.11.22.11.22.11.21.12.22.11.22.11.21.11.22.11.22.11.21.11.22.11.22.12.21.11.22.11.21.11.22.11.21.11.22.11.21.11.22.12.22.11.21.11.22.11.21.11.22.11.21.11.22.12.22.11.21.11.22.11.21.11.22.12.21.11.22.11.21.11.22.11.21.11.22.12.21.11.22.11.21.11.22.12.21.11.22.11.21.11.21.12.22.1.21.12.22.11.21.12.22.1.21.12.22.11.21.11.21.12.22.11.21.11.21.11.22.12.21.11.22.11.21.11.21.12.22.11.21.11.21.11.22.12.21.11.22.11.21.12.21.11.21.11.22.11.21.12.21.11.22.11.21.12.21.1.21.12.22.11.21.11.21.12.21.11a1.51,1.51,0,0,0,.22.11l.21.12.21.11.21.11.21.11.22.12.21.11.21.11.21.12.21.11.21.11.22.12.21.11.21.11.21.11.21.12.21.11.22.11.21.12.21.11.21.11.21.12.21.11.21.11.21.12.21.11.21.11.21.11.21.12.21.11.21.11.22.12.2.11.21.11.21.12.21.11.21.11.21.12.21.11.21.11.21.12.21.11.21.11.21.11.21.12.21.11.21.11.21.12.2.11.21.11.21.12.21.11.21.11.21.12.2.11.21.12.21.11.21.11.21.11.2.11.21.12.21.11.21.11.2.12.21.11.21.11.21.12.2.11.21.12.21.1.2.12.21.11.21.11.21.12.2.11.21.11.2.12.21.11.2.11.21.11.2.12.21.11.21.11.2.12.21.11.2.11.21.12.2.11.21.11.2.11.21.12.2.11.21.11.2.12.21.11.2.11.2.11.21.12.2.11.21.11.2.11.21.12.2.11.21.11.2.12.2.11.21.11.2.11.2.12.2.1.21.12.2.11.2.11.2.12.2.11.21.11.2.11.2.12.21.11.2.11.2.11.2.11.2.12.2.11.2.11.2.11.21.11.2.12.2.11.2.11.2.11.2.11.2.12.2.11.2.11.2.11.2.11.2.11.2.12.2.11.2.11.2.11.2.11.2.11.19.12.2.11.21.11.19.11.2.11.2.11.2.11.2.12.19.11.2.11.2.11.19.11.21.11.19.11.2.11.19.12.21.11.19.1.2.12.19.11.2.11.2.11.19.11.2.11.2.11.19.11.2.11.19.11.2.12.19.1.2.11.19.12.2.11.19.11.2.1.19.12.2.11.19.11.2.1.19.12.19.11.2.11.19.11.19.11.2.11.19.11.19.11.2.11.19.1.19.11.2.12.19.11.19.1.19.11.19.11.2.11a1.18,1.18,0,0,0,.19.11l.19.11.19.11.19.11.19.11a1.18,1.18,0,0,1,.19.11l.2.11.18.1.19.11.2.11.18.11.2.11.18.11.2.11.18.1.19.11.19.11.19.11.19.11a961579096332.73,961579096332.73,0,0,0,.38.22l.19.1.19.11.18.11.19.11.19.1.19.11a1.18,1.18,0,0,0,.19.11l.19.11.18.11.19.1.19.11.18.11.19.11.19.11.18.1.19.11.19.11.18.1.19.11.18.11a1.18,1.18,0,0,1,.19.11l.18.1.19.11.19.11.18.1.19.11.18.11.18.1.19.11.18.11.19.1.18.11.18.1.19.11.18.11.19.1.18.11.18.1.18.11.19.11.18.1.18.11.19.1.17.11.19.1.18.11.18.1.18.11.18.11.18.1.18.11.18.1.19.11.17.1.18.11.19.1a.77.77,0,0,0,.18.1l.17.11.18.1.18.11.18.1.18.11.18.1.18.1.18.11.17.1.18.11.18.1.18.1.18.11.17.1.18.11.18.1.17.1.18.11.18.1.17.1.18.11a1,1,0,0,1,.17.1l.18.1.18.11.17.1.18.1.17.1.18.11.17.1.18.1.17.1.17.1.18.11.17.1.18.1.17.1.17.1.17.11.18.1.17.1.17.1.17.1.18.1.17.1.17.1.17.1.17.1.17.11.18.1.17.1.17.1.17.1.17.1.17.1.17.1.17.1.17.1.16.1.17.1.17.1.17.1.17.1.17.1.17.1.17.09.16.11a1,1,0,0,1,.17.1l.17.1.16.09.17.1.17.1.17.1.16.1.17.09.16.11.17.09.16.1.17.1.17.1.16.09.17.1.16.1.16.1.17.1.16.09.17.1.16.1.16.09.17.1.16.1.16.1.16.09.17.1.16.09.16.1.16.1.17.09.16.1.16.09.16.1.16.1.16.09.16.1.16.09.16.1.16.1.16.09.16.09.16.1.16.1.15.09.16.09.16.1.16.1.16.09.15.09.16.1.16.09.15.1.16.09.16.09.16.1.15.09.15.09.16.09.16.1.15.09.16.09.15.1.16.09.15.09.15.09.16.1.15.09.16.09.15.1.15.09.15.09.16.09.15.09.15.09.15.09.16.1.15.09a1.19,1.19,0,0,1,.15.09l.15.09.15.09.15.09.15.09.15.09.15.09.15.09.15.09.15.09.15.09.15.09.15.09.14.09.15.09.15.09.15.09.14.09.15.08.15.1.14.08.15.09.15.09.14.09.15.09.15.08.14.09.14.09.15.08a.78.78,0,0,0,.15.1l.14.08.14.09.15.09.14.08.14.09.15.09.14.08.14.09.14.09.15.08.14.09.14.08.14.09.14.08.14.09.14.09.15.08.14.09.14.08.14.09.14.08.13.08.14.09.14.09.14.08.14.09.14.08.13.08.14.08.14.09.14.08.13.09.14.08.14.08.13.09.14.08.13.08.14.08.13.09.14.08.13.08.14.08.13.08.14.09.13.08.13.08.14.08.13.08.13.08.13.08.13.08.14.08.13.09.13.07.13.09.13.08.13.07.13.09.13.08.13.07.13.08.13.08.13.08.13.08.13.08.12.08.14.08.12.08.13.07.13.08.12.08a.57.57,0,0,1,.13.08l.12.07.13.08.13.08.12.08.13.07.12.08a.57.57,0,0,1,.13.08l.12.07.13.08.12.07a.57.57,0,0,0,.13.08l.12.08.12.07.12.08.13.07.12.08.12.08.13.07.11.07.13.08.12.07.12.08.12.07.12.07.12.08.12.07.12.08.12.07.12.08.12.07.11.07.12.07.12.08.12.07.11.07.12.08.12.07.11.07.12.07.12.07a.41.41,0,0,0,.11.07l.12.07a.41.41,0,0,0,.11.07l.12.08.11.07.12.07.11.07a.41.41,0,0,1,.11.07l.12.07.11.07a284209820251.7,284209820251.7,0,0,0,.22.14l.12.07.11.07.11.06.11.07.11.07.12.07.1.07.11.07.12.07.11.06a.41.41,0,0,0,.11.07l.1.07.11.07.11.07.11.07.11.06.11.07.1.07.11.06.11.07.1.06.11.07.11.07.1.06.11.07.1.06.11.07.1.06.1.07.11.06.1.07.1.06.11.06.1.07.1.06.1.06.11.07.1.06.1.07.1.06.1.06.1.06.1.07.1.06.1.06.1.06.1.06a.33.33,0,0,0,.1.06l.1.07.09.06.1.06.1.06.1.06.09.06.1.06.09.06.1.06.1.06.09.06.1.06.09.06.1.06.09.06.09,0,.1.07.09.05.09.06.09.06a.53.53,0,0,1,.1.06l.09.05.09.06.09.06.09.05.09.06.1.06.09,0a.24.24,0,0,0,.08.06l.1.06.08.05.09.06.09.05.09.06.09.06.08.05.09.06.09,0a.26.26,0,0,0,.09.05l.08.06.09.05.08.06.09.05.08,0,.09.06.08.05.09.05.08.05.08.06.09.05.08,0,.08.05.08.06.09.05.08.05.08.05.08,0,.08.05.08.05.08.05.08.05.08,0,.08.05.08.05.08.05.07.05.08,0,.08.05.08,0,.07.06.08,0,.07.05.08.05.08,0a.18.18,0,0,0,.07,0l.07.05.08.05.07.05.08,0,.07.05.08,0a.18.18,0,0,0,.07.05l.07.05.07,0,.07,0,.07.05.08,0,.07,0,.07.05.07,0,.07,0a.18.18,0,0,0,.07.05l.07,0,.07,0,.06,0,.07,0,.07,0,.07,0,.06,0,.07,0,.07,0,.06.05.07,0,.06,0,.07,0,.06,0,.07,0,.06,0,.07,0,.06,0,.06,0,.06,0a.15.15,0,0,1,.06,0l.07,0,.06,0,.06,0,.06,0,.06,0,.07,0,0,0,.06,0,.06,0,.06,0,.06,0,.06,0,.06,0,.05,0,.06,0,.06,0,.05,0,.06,0,.06,0,0,0a.1.1,0,0,1,.05,0l.06,0a.1.1,0,0,1,.05,0l.06,0,0,0a.1.1,0,0,1,.05,0l.06,0,.05,0,0,0,0,0,.06,0,0,0,.05,0,0,0,.05,0,0,0s0,0,0,0l.05,0,0,0,.05,0,0,0,0,0,.05,0,0,0,0,0,.05,0,0,0,.05,0,0,0a.05.05,0,0,1,0,0l0,0,0,0,0,0,0,0s0,0,0,0l0,0,0,0,0,0,0,0,0,0,0,0,0,0,0,0,0,0,0,0,0,0,0,0,0,0,0,0,0,0,0,0,0,0s0,0,0,0l0,0,0,0,0,0,0,0,0,0s0,0,0,0l0,0,0,0,0,0,0,0,0,0,0,0,0,0,0,0,0,0,0,0,0,0,0,0,0,0,0,0,0,0h0l0,0,0,0,0,0h0l0,0,0,0h0l0,0,0,0h0l0,0h0l0,0h0l0,0h0l0,0h0l0,0h0l0,0h.07a0,0,0,0,1,0,0h.21a208.15,208.15,0,0,0-34.34-13.69,232,232,0,0,0-66.49-9.63c-105.38,0-173.78,62.86-173.78,189.51,0,83.2,43.45,185.81,173.78,185.81a295.45,295.45,0,0,0,36.75-2.33c50.4-6.37,88-49.52,88-100.32a13.81,13.81,0,0,0-13.82-13.83H639.76a71.65,71.65,0,0,1,0-143.29H747.31A137,137,0,0,1,871.4,504.69C885.53,534.84,886.13,569,881.61,601.4Z"/><path class="cls-5" d="M826.23,292l-33,32.76a77,77,0,0,1-75.64,19.18A77.93,77.93,0,0,1,703,338.09c-.76-.4-1.5-.79-2.26-1.17h0l-.08-.05c-5.19-3.36-226.53-146.1-294-128.62,1.49-.76,3.41-1.79,5.74-3a364,364,0,0,1,94.22-35.68l.12,0a442.05,442.05,0,0,1,93-9.43c36.9,0,72.07,3.12,106.61,12.8,6,1.84,12.09,3.82,18.12,5.7,1.84.66,3.7,1.33,5.54,2,31.36,11.74,62.4,29.6,94,56.17A37.44,37.44,0,0,1,826.23,292Z"/></svg>