<svg id="Layer_1" data-name="Layer 1" xmlns="http://www.w3.org/2000/svg" xmlns:xlink="http://www.w3.org/1999/xlink" viewBox="0 0 1000 1000"><defs><style>.cls-1{fill:#0e1826;}.cls-2{font-size:62.73px;fill:#a57349;stroke:#a57349;stroke-miterlimit:10;stroke-width:2.66px;font-family:false, Chillax;}.cls-3{fill:url(#linear-gradient);}.cls-4{fill:url(#linear-gradient-2);}.cls-5{fill:url(#linear-gradient-3);}.cls-6{fill:url(#linear-gradient-4);}</style><linearGradient id="linear-gradient" x1="357.47" y1="164.6" x2="357.69" y2="164.38" gradientUnits="userSpaceOnUse"><stop offset="0" stop-color="#f5c187"/><stop offset="0.15" stop-color="#cfa16f"/><stop offset="0.45" stop-color="#8b6643"/><stop offset="0.7" stop-color="#5a3c23"/><stop offset="0.89" stop-color="#3b220f"/><stop offset="1" stop-color="#301808"/></linearGradient><linearGradient id="linear-gradient-2" x1="357.69" y1="164.49" x2="357.71" y2="164.47" xlink:href="#linear-gradient"/><linearGradient id="linear-gradient-3" x1="239.02" y1="708.06" x2="780.05" y2="167.03" xlink:href="#linear-gradient"/><linearGradient id="linear-gradient-4" x1="442.04" y1="289.24" x2="693.63" y2="91.39" gradientUnits="userSpaceOnUse"><stop offset="0" stop-color="#f5c187"/><stop offset="0.16" stop-color="#d5a570"/><stop offset="0.57" stop-color="#89633a"/><stop offset="0.86" stop-color="#593918"/><stop offset="1" stop-color="#47290b"/></linearGradient></defs><rect class="cls-1" x="41" y="32" width="927" height="927" rx="463.5"/><text class="cls-2" transform="translate(255.38 861.36)">THE GRANDIOSE</text><path class="cls-3" d="M357.69,164.49l-.25,0,.19,0Z"/><polygon class="cls-4" points="357.7 164.48 357.71 164.48 357.69 164.49 357.7 164.48"/><path class="cls-5" d="M786.5,526.54a254.84,254.84,0,0,1-70.42,142.71A250.46,250.46,0,0,1,539.4,744.49l-4.74,0c-234,0-322.71-156.28-322.71-310.88,0-103,45-207.94,140.86-266.46l1-.59.12-.08,3.41-1.81a3.72,3.72,0,0,0,.39-.21h0l.12,0,.22,0,.22,0,.22,0,.19,0c.24,0,.48-.1.72-.16l.1,0,.1,0,.11,0,.1,0,.11,0,.1,0,.11,0,.1,0,.1,0,.11,0,.1,0,.11,0,.11,0,.1,0,.11,0,.11,0,.11,0,.1,0,.11,0,.11,0,.11,0,.11,0,.11,0,.1,0,.12,0,.1,0,.11,0,.11,0,.11,0,.12,0h.1l.11,0,.12,0h.11l.11,0h.11l.11,0,.12,0h.11l.11,0h.12l.11,0h.23l.11,0h.12l.11,0h.35l.11,0h.47l.11,0h1.07l.11,0h11.1l.13,0h.28l.14,0h.28l.14,0h.28l.14,0h.28l.14,0,.14,0h.28l.14,0h.15l.14,0,.14,0h.14l.15,0,.14,0h.14l.14,0,.15,0,.14,0,.14,0h.15l.14,0,.15,0,.14,0,.14,0,.15,0,.15,0,.14,0,.15,0,.14,0,.15,0,.14,0,.15,0,.15,0,.14,0,.15,0,.14,0,.15,0,.15,0,.15,0,.14,0,.16,0,.14,0,.15,0,.15,0,.15,0,.15,0,.14,0,.16,0,.14,0,.15,0,.15,0,.15,0,.15,0,.15,0,.15,0,.16,0,.15,0a.58.58,0,0,1,.14,0l.16,0,.15,0a.8.8,0,0,1,.15,0l.15,0,.16,0,.15,0,.15,0,.15,0,.16,0,.15,0,.15,0,.15,0,.16,0,.15,0,.15,0,.16,0,.15,0,.16,0,.15,0,.16,0,.15,0,.15,0,.16,0,.15,0,.16,0,.15,0,.16,0,.16,0,.16,0,.15,0,.16,0,.16,0,.15,0,.16,0,.16,0,.15,0,.16,0,.16,0,.16,0,.16,0,.15,0,.16,0,.16,0,.16,0,.15,0,.16,0,.16,0,.16,0,.16,0,.16,0,.17,0,.15,0,.16,0,.16,0,.16,0,.17,0,.16,0,.16,0,.16,0,.16,0,.16,0,.16,0,.16,0,.17,0,.16,0,.16,0,.16,0,.17,0,.16,0,.16,0,.16,0,.17,0,.16,0,.16,0,.17,0,.16,0,.17.05.16,0,.17,0,.16,0,.17,0,.16.05.16,0,.17,0,.16,0,.17.05.16,0,.17,0,.17,0,.16,0,.17.05.16,0,.17,0,.17,0,.17,0,.16.05.17,0,.17.05.17,0,.16.05.17,0,.17.05.17,0,.16,0,.17,0,.17.05.17,0,.17.05.16,0,.18.05.16,0,.17.05.17,0,.17.05.17,0,.17.05.17,0,.17.05.17.05.17,0,.17.05.17,0,.17,0,.17.06.18,0,.17.06.17,0,.17.06.17.05.17,0,.17.05.18,0,.17.05.17.05.17,0,.18.06.17.05.17,0,.18.05.17.05.17.06.18.05.17.05.17.06.18,0,.17.05.18.06.17,0,.17.06.18.05.17,0,.18.06.17.06.18.05.17,0,.18.06.17.05.18.06.18.06.17,0,.18.06.17.05.18.06.17.06.18,0,.18.06.17.06.18.05.18.06.17.06.18.06.18,0,.18.06.17.06.18.06.18.05.18.06.18.06.17.06.18.06.18.06.18.06.17.06.18.06.18.06.18.06.18.06.18.06.18.06.18.06.18.06.18.06.18.06.18.07.18.05.18.07.18.06.18.06.18.06.18.07.18.06.18.06.18.06.18.06.19.07.18.06.18.06.18.07.18.06.18.07.19.06.17.06.19.07.18.06.18.06.18.07.19.06.18.07.18.06.18.07.19.07.18.06.18.06.19.07.18.06.18.07.19.07.18.06.18.07.19.07.18.06.19.07.18.07.18.07.19.06.19.07.18.07.18.06.19.07.18.07.19.07.18.07.19.07.18.06.19.07.18.07.19.07.19.07.18.07.19.07.18.07.19.07.18.07.19.07.19.07.18.07.19.06.19.08.18.07.19.07.19.07.18.07.19.07.19.07.18.07.19.08.19.07.19.07.18.07.19.07.19.08.19.07.18.07.19.07.19.08.19.07.19.07.18.08.2.07.18.07.19.07.19.08.19.07.19.07.19.08.18.07.2.08.18.07.19.07.19.08.19.08.19.07.19.07.19.08.19.07.19.08.19.08.19.07.19.08.19.07.19.08.19.08.19.07.19.08.19.08.19.07.19.08.2.07.19.08.19.08.19.07.19.08.19.08.19.08.19.08.19.08.19.07.2.08.19.08.19.08.19.08.19.07.2.08.19.08.19.08.19.08.2.08.19.08.19.08.19.08.19.08.2.07.19.08.19.08.19.08.2.08.19.08.19.09.2.08.19.08.19.08.2.08.19.08.19.08.19.08.2.08.19.08.2.09.19.08.19.08.2.08.19.08.19.08.2.09.19.08.2.08.19.08.2.09.19.08.19.08.2.08.19.09.2.08.19.09.2.08.19.08.2.08.19.09.19.08.2.08.19.09.2.08.19.09.2.08.2.09.19.08.2.08.19.09.2.09.19.08.2.08.19.09.2.08.19.09.2.09.19.08.2.09.2.08.19.09.2.08.19.09.2.09.19.08.2.09.2.08.19.09.2.09.2.09.19.08.2.09.2.08.19.09.2.09.2.09.19.08.2.09.2.09.19.08.2.09.2.09.19.09.2.09.2.09.19.08.2.09.2.09.19.09.2.09.2.09a1.63,1.63,0,0,1,.19.09l.2.08.2.09.2.09.19.09.2.09.2.09.2.09.19.09.2.09.2.09.2.09.2.09.19.09.2.09.2.08.2.1.19.09.2.09.2.09.2.09.19.09.2.09.2.09.2.09.2.09.2.09.19.09.2.09.2.1.2.09.19.09.2.09.2.09.2.09.2.1a1.76,1.76,0,0,1,.2.09l.2.09.19.09.2.09.2.09.2.1.2.09.19.09.2.09.2.1a1.76,1.76,0,0,1,.2.09l.2.09.2.09.2.1.2.09.2.09.19.1a1.21,1.21,0,0,1,.2.09l.2.09.2.1.2.09.2.09.2.09a1.24,1.24,0,0,0,.2.1l.19.09.2.1.2.09.2.09.2.1.2.09.2.09a1.24,1.24,0,0,0,.2.1l.2.1.19.09.2.09.2.1.2.09.2.1.2.09.2.1.2.09.2.09.19.1.2.1.2.09a1.76,1.76,0,0,0,.2.09l.2.1.2.09.2.1.2.1.2.09.2.1.2.09.2.1.2.09a1.24,1.24,0,0,0,.2.1l.19.1.2.09.2.1.2.09.2.1.2.1.2.09.2.1.2.09.19.1a1639055160991.86,1639055160991.86,0,0,0,.4.2l.2.09.2.1.2.09.2.1.2.1.2.09.2.1.2.1.2.09a2458582741486,2458582741486,0,0,1,.4.2l.19.1.2.1.2.09.2.1.2.1a1.24,1.24,0,0,1,.2.1l.2.09.2.1.2.1.2.1.2.09.2.1.2.1.2.1.19.09.2.1.2.1.2.1.2.1.2.1.2.09.2.1.2.1.2.1.2.1.2.1.2.1.2.09a1.24,1.24,0,0,0,.2.1l.19.1.2.1.2.1.2.1.2.1.2.1.2.1.2.1.19.09.2.1.2.1.2.1.2.1.2.1.2.1.2.1.2.1.19.1.2.1.2.1.2.1.2.1.2.1.2.1.2.1.2.1.19.1.2.1.2.1.2.1.2.1.2.1.2.1.19.1.2.1.2.1.2.1.2.1.19.1.2.1.2.1.2.11.2.1.2.09.2.11.2.1.19.1.2.1.2.1.19.1.2.1.2.1.2.1.2.11.2.1.19.1.2.1.2.1a1.24,1.24,0,0,0,.2.1l.2.1.19.1.2.11.2.1.19.1.2.1.2.1.2.1.2.11.19.1.2.1.2.1.2.1.19.1.2.11.2.1.2.1.19.1.2.1.2.1.19.11.2.1.2.1.2.1.19.1.2.11.2.1.19.1.2.1.2.1.19.11.2.1.2.1.19.1.2.11.2.1.19.1.2.1a1.24,1.24,0,0,0,.2.1l.19.11.2.1.19.1.2.1.2.11.19.1.2.1.19.1.2.11.2.1.19.1.2.11.19.1.2.1.19.11.2.1.19.1.2.1.19.11a1.24,1.24,0,0,1,.2.1l.2.1.19.1.2.11.19.1.2.1.19.1.2.11.19.1.2.11.19.1.2.1.19.1.2.11.19.1.2.1.19.11.19.1.2.1.19.1.2.11.19.1.19.1.2.11.2.1.19.11.19.1.19.1.2.1.19.11.2.1.19.1.19.11.2.1.19.1.19.11.2.1.19.1.19.1.2.11.19.1.19.11.2.1.19.1.19.11.19.1.19.1.2.11.19.1.19.1.2.1.19.11.19.1.19.11.19.1.2.1.19.11.19.1.19.1.19.11.2.1.19.1.19.11.19.1.19.11.19.1.19.1.19.1.2.11.19.1.19.1.19.11.19.1.19.1.19.11.19.1.19.11.19.1.19.1a1.18,1.18,0,0,1,.19.11l.19.1.19.1.19.1.19.11.19.1.19.1.19.11.19.1.19.1.19.11.19.1.19.11.19.1.19.1.18.1.2.11.18.1.19.1.19.11.19.1.19.1.19.11.19.1.18.1.19.1.19.11.19.1.19.11.18.1.19.1.19.11.19.1.18.1.19.1.19.11.19.1.18.1.19.11.19.1.18.1.19.11.19.1.18.1a1.18,1.18,0,0,1,.19.11l.19.1.18.1.19.1.19.11.18.1.19.1.18.1.19.11.18.1.19.1.18.1.19.11.19.1.18.11.18.09.19.11.18.1a1.18,1.18,0,0,1,.19.11l.18.1.19.1.18.1.19.1.18.11.18.1.19.1.18.1.18.11.19.1.18.1.18.1.19.11.18.1.18.1.19.1.18.1.18.11.19.1.18.1.18.1.18.1.19.11.18.1.18.1.18.1.18.1.19.11.18.1.18.1.18.1.18.1.19.1.17.11.18.1.19.1.18.1.18.1.18.1.18.11.18.1.18.1.18.1.18.1.18.1.18.1.18.11.18.1.18.1.18.1.18.1.18.1.17.1.18.1.18.11.18.1.18.1.18.1.17.1.18.1.18.1.18.1.18.1.17.1.18.1.18.1.18.1.17.1.18.1.18.11.17.1.18.1.18.1.17.1.18.1.17.09.18.11.18.1.17.1.18.1.17.1.18.1.17.1.18.1a1,1,0,0,1,.17.1l.18.1a1,1,0,0,1,.17.1l.18.09a1,1,0,0,0,.17.1l.17.1.18.1.17.1.18.1.17.1.17.1.18.1.17.1.18.1.17.1.17.1a1687152051028.66,1687152051028.66,0,0,0,.34.2l.18.1.17.09.17.1.17.1.18.1.17.1.17.1.17.1.18.09a1,1,0,0,0,.17.1,1,1,0,0,0,.17.1l.17.1.17.1.17.09a1,1,0,0,0,.17.1l.17.1.17.1.17.1a1,1,0,0,1,.17.1l.17.09.17.1.17.1.17.1.17.1.17.09.17.1.17.1.16.1.17.09.17.1.17.1.17.09.17.1.16.1.17.09.17.1.17.1.17.09.16.1.17.1.16.1.17.09.17.1.17.1.16.09.17.1.16.09.17.1.17.1.16.09.17.1.16.1.16.09.17.1.16.09.17.1.17.09.16.1.16.1.17.09.16.1.16.09.17.1.16.09.16.1.17.09.16.1.16.09.17.1.16.09.16.1.16.09.16.1.17.09.15.09.17.1.16.09.16.1.16.09.16.09.16.1.16.1.16.09.16.09.16.1.16.09.16.09.16.1.16.09.16.09.16.1.16.09.16.09.16.1.15.09.16.09.16.1.16.09.16.09.15.09.16.1.16.09.16.09.15.09.16.09.15.1.16.09.16.09.15.09.16.1a.6.6,0,0,1,.15.09l.16.09.15.09.16.09.15.09.16.1.15.08.16.09.15.1.15.09.16.09.15.09.16.09.15.09.15.09.15.09.16.09.15.09.15.1a.71.71,0,0,1,.15.08l.16.09.15.09.15.09.15.09.15.09.15.09.16.09.15.09.15.09.15.09.15.09.15.09.15.09.15.08a1.7,1.7,0,0,1,.14.1l.16.08.14.09.16.09.14.09.15.09.15.09.15.08.15.09.14.09.15.09.15.08a.75.75,0,0,0,.15.09l.14.09.15.09.15.09.14.08a1.19,1.19,0,0,0,.15.09l.14.09.15.09.14.08.15.09.15.09.14.08.15.09.14.08.15.09.14.09.14.08a1.19,1.19,0,0,0,.15.09l.14.09.15.08.14.09.14.08.15.09.14.09.14.08.14.09.15.08.14.09.14.08.14.09.14.08.15.09.13.08.14.08.15.09.14.09.14.08.14.08.14.09.14.08.13.08.14.09.14.08.14.09.14.08.14.08.14.08.14.09.13.08.14.08.14.09.14.08.13.08.14.08.13.08.14.09.14.08.13.08.14.09.14.07.13.09.14.08.13.08.13.08.14.08.13.09.14.07.13.08.13.08.14.09.13.08.14.08.13.08.13.08.13.08.14.08.13.08.13.08.13.08.13.08.13.08.13.07.13.08.13.08.13.08.13.08.13.08.13.08.13.08.13.07.13.08.13.08a.57.57,0,0,0,.13.08l.13.08.12.08.13.07a.57.57,0,0,0,.13.08l.13.08.12.08.13.07.12.08.13.08.13.07.12.08.13.07.12.08.13.08.13.08.12.07.13.08.12.07.12.08.13.07.12.08.12.08.13.07.12.07a.57.57,0,0,0,.13.08l.12.07.12.08.12.07.12.08.13.07.11.08.12.07.13.07.12.08.12.07.12.08.12.07.12.07.12.08.12.07.11.07.12.07.12.08.12.07.12.07.12.08a.41.41,0,0,1,.11.07l.12.07.12.07.12.07a.41.41,0,0,0,.11.07l.12.08.12.06.11.08.12.07.11.07.12.07.11.07.12.07.12.07a.41.41,0,0,0,.11.07l.11.07.11.07.12.07.11.07.12.07.11.07.11.07a.41.41,0,0,1,.11.07l.12.07.11.07.11.07.11.06.11.07.11.07.11.07.11.06.11.07.11.07.11.07.11.07.11.06.11.07.11.07.11.07.1.06.11.07.11.07.11.06.11.07.1.06.11.07.1.07.11.06.11.06.1.07.11.07.1.06.11.07.1.06.11.06.1.07.11.06.1.07.1.06.11.07.1.06.1.07a.31.31,0,0,1,.1.05l.1.07.11.06.1.07.1.06.1.06.1.06.1.07.1.06.1.06.1.06.1.06.1.06.1.07.1.06.1.06.1.06.09.06.1.06.1.06.09.06.1.06.1.06.09.06.1.06.1.06.09.06.1.06.09.06.1.06.09.06.1.05.09.06.09.06.09.06.1.06.09.06.09.06.1.05.09.06.09.06.09,0,.09.06.09.06a.47.47,0,0,1,.1.05l.08.06.1.06a.26.26,0,0,0,.09.05l.08.06.09.05.09.06.09,0,.09.06.09.06.08.05.09.05.09.06.09.06.09.05.08,0,.09.05.08.06.09.05.09.06.08.05.08,0,.09.06.08.05.09.05.08.05.09.05.08.06.08,0,.08.05.09.05.08.05.08.06.08.05.08,0,.08.05.08.05.08.05.08.05.08,0,.08.05.08.05.08.05.08.05.08,0,.08.05.07.05.08.05.08,0,.07.05.08.05a.18.18,0,0,1,.07.05l.08,0,.08.05.07.05.08.05a.18.18,0,0,1,.07.05l.08,0,.07.05.08.05.07,0a.18.18,0,0,1,.07,0l.08,0,.07.05.07.05.08,0,.07,0,.07.05.07,0,.07,0,.07,0,.07.05.07,0,.07.05.07,0,.07,0,.07,0,.07,0,.06,0,.07.05.07,0,.07,0,.07.05.06,0,.07,0,.06,0,.07,0,.07,0,.06.05.07,0,.06,0,.07,0,.06,0,.06,0,.07,0,.06,0,.06,0,.06,0,.07,0,.06,0,.06,0,.06,0,.06,0,.06,0,.06,0,.06,0,.06,0,.06,0,.06,0,.06,0,.06,0,.06,0,0,0,.06,0,.06,0,.06,0,.06,0,0,0,.06,0a.1.1,0,0,0,0,0l.06,0,0,0,.06,0,.05,0a.1.1,0,0,1,0,0l.06,0,0,0,.06,0,0,0,0,0,.05,0,.06,0,.05,0s0,0,0,0a.1.1,0,0,0,.05,0l0,0,0,0a.1.1,0,0,1,.05,0s0,0,0,0l.05,0,0,0,0,0,.05,0,0,0,0,0,.05,0,0,0,0,0,0,0,0,0,0,0,0,0,0,0,.05,0s0,0,0,0l.05,0,0,0,0,0,.05,0,0,0,0,0,.05,0,0,0,0,0,0,0s0,0,0,0l0,0,0,0,0,0,0,0,0,0,0,0,0,0,0,0,0,0,0,0,0,0,0,0,0,0,0,0,0,0,0,0,0,0,0,0,0,0,0,0,0,0,0,0,0,0,0,0,0,0,0,0,0,0,0,0,0,0,0,0,0,0,0,0,0,0,0,0,0,0,0,0h0l0,0,0,0,0,0h0l0,0,0,0,0,0h0l0,0h0a0,0,0,0,0,0,0,0,0,0,0,1,0,0h0l0,0h0l0,0h0l0,0h0l0,0h0l0,0h.06l0,0h.07v0h.26a190.88,190.88,0,0,0-31.39-12.51,211.88,211.88,0,0,0-60.75-8.8c-96.3,0-158.82,57.45-158.82,173.18,0,76,39.71,169.8,158.82,169.8a270.77,270.77,0,0,0,33.58-2.13c46.06-5.82,80.46-45.25,80.46-91.68A12.62,12.62,0,0,0,636.92,497H565.49a65.47,65.47,0,1,1,0-130.94h98.28a125.18,125.18,0,0,1,113.4,72.11C790.08,465.71,790.63,496.9,786.5,526.54Z"/><path class="cls-6" d="M735.89,243.79l-30.2,29.94a70.33,70.33,0,0,1-69.12,17.53,71.46,71.46,0,0,1-13.32-5.35c-.69-.36-1.37-.72-2.07-1.07h0l-.08,0c-4.74-3.07-207-133.52-268.63-117.54,1.36-.7,3.11-1.64,5.24-2.78a332.92,332.92,0,0,1,86.1-32.61l.12,0a404.05,404.05,0,0,1,85-8.61c33.72,0,65.87,2.85,97.43,11.69,5.49,1.68,11,3.5,16.55,5.22,1.69.6,3.39,1.21,5.08,1.84,28.65,10.73,57,27.05,85.86,51.33A34.21,34.21,0,0,1,735.89,243.79Z"/></svg>