<svg id="Layer_1" data-name="Layer 1" xmlns="http://www.w3.org/2000/svg" xmlns:xlink="http://www.w3.org/1999/xlink" viewBox="0 0 4163 1000"><defs><style>.cls-1{fill:#0e1826;}.cls-2,.cls-3{fill:#a57349;}.cls-2{stroke:#a57349;stroke-miterlimit:10;stroke-width:9.55px;}.cls-4{fill:url(#linear-gradient);}.cls-5{fill:url(#linear-gradient-2);}.cls-6{fill:url(#linear-gradient-3);}.cls-7{fill:url(#linear-gradient-4);}</style><linearGradient id="linear-gradient" x1="647.49" y1="293.02" x2="647.64" y2="292.86" gradientUnits="userSpaceOnUse"><stop offset="0" stop-color="#f5c187"/><stop offset="0.15" stop-color="#cfa16f"/><stop offset="0.45" stop-color="#8b6643"/><stop offset="0.7" stop-color="#5a3c23"/><stop offset="0.89" stop-color="#3b220f"/><stop offset="1" stop-color="#301808"/></linearGradient><linearGradient id="linear-gradient-2" x1="647.64" y1="292.94" x2="647.66" y2="292.93" xlink:href="#linear-gradient"/><linearGradient id="linear-gradient-3" x1="564.33" y1="674.55" x2="944.15" y2="294.72" xlink:href="#linear-gradient"/><linearGradient id="linear-gradient-4" x1="706.86" y1="380.51" x2="883.48" y2="241.62" gradientUnits="userSpaceOnUse"><stop offset="0" stop-color="#f5c187"/><stop offset="0.16" stop-color="#d5a570"/><stop offset="0.57" stop-color="#89633a"/><stop offset="0.86" stop-color="#593918"/><stop offset="1" stop-color="#47290b"/></linearGradient></defs><rect class="cls-1" y="-0.3" width="4163" height="1000.6"/><path class="cls-2" d="M1247,268.34v11.05h-70.54V484.83h-11.7V279.71h-70.86V268.34Z"/><path class="cls-2" d="M1300.92,484.83h-12V268.34h12V371.06h138.8V268.34h11.7V484.83h-11.7V382.43h-138.8Z"/><path class="cls-2" d="M1666.28,484.83h-128.4q-14,0-14-13.66V282q0-13.65,14-13.65H1663v11.05h-127.1v91.67H1657.5v11.05l-121.57.32v91h130.35Z"/><path class="cls-2" d="M1901.94,488.08q-44.54,0-75.74-32.83t-31.2-79q0-45.18,31.2-78t75.74-32.83a103,103,0,0,1,48.6,11.87,88.09,88.09,0,0,1,35.6,34l-10.08,6.18a76.91,76.91,0,0,0-31.86-30.07,91.76,91.76,0,0,0-42.58-10.56q-39,0-66.64,29.25t-27.63,70.22q0,41.28,27.47,70.7t67.12,29.42a99,99,0,0,0,43.4-9.76q20.31-9.75,29.74-22.43V385.68h11.7v63.07q-11.7,15.93-34.13,27.63T1901.94,488.08Z"/><path class="cls-2" d="M2056.35,484.83h-11.7V268.34H2108q33.16,0,54,15.27t20.81,44.86q0,24.39-15,39.82t-41.28,19.34a52.31,52.31,0,0,1,15.28,8.29A64.86,64.86,0,0,1,2155.17,411q6.49,9.75,10.24,16.58t11.21,21.78l17.88,35.43h-13L2164.92,452q-5.21-10.08-7.32-14.31t-7-12.35a90.89,90.89,0,0,0-8-11.7q-3.09-3.57-8.45-8.94a32.93,32.93,0,0,0-10.56-7.48,98.63,98.63,0,0,0-12.2-3.9,61,61,0,0,0-15.11-1.79h-40ZM2108,279.39h-51.36V380.48h50.71q28.6,0,46-13.16t17.39-38.2q0-24.69-17.72-37.22T2108,279.39Z"/><path class="cls-2" d="M2228,484.83l62.09-196.34q7.14-23.07,30.55-23.08,23.07,0,30.23,23.08l62.09,196.34h-11.7l-20.81-66.32-119.62.33-20.8,66Zm72.49-193.09-36.41,116.05h112.8l-36.41-116q-4.87-15.6-19.83-15.6Q2305.34,276.14,2300.47,291.74Z"/><path class="cls-2" d="M2473.4,484.83h-11.05V291.42q0-12.36,6.66-19.18t17.06-6.83q15.29,0,22.43,15.93l87.12,185q4.88,11.38,14,11.38,11,0,11.05-15.28V268.34H2632V461.75q0,12-6.5,19a20.93,20.93,0,0,1-15.93,7q-15.93,0-23.41-15.93l-87.11-185.61q-4.87-11-13-11a11.27,11.27,0,0,0-9.26,4.23q-3.41,4.23-3.41,11.7Z"/><path class="cls-2" d="M2885.9,374.31q0,50.7-33.48,80.61t-83.54,29.91h-64.37V268.34h67.29q51,0,82.57,29.25T2885.9,374.31Zm-12,0q0-42.26-28.6-68.59t-73.47-26.33h-55.26V473.45h52.34q44.2,0,74.6-26.82T2873.87,374.31Z"/><path class="cls-2" d="M2942.78,268.34h12V484.83h-12Z"/><path class="cls-2" d="M3117,487.75q-45.51,0-77.2-32.34t-31.69-79.15q0-46.15,31.85-78.34t77-32.18q45.51,0,77.2,32.18t31.7,78.34q0,46.8-31.86,79.15T3117,487.75Zm0-11.7q40,0,68.27-29.09t28.28-70.7q0-41.28-28.12-70.22T3117,277.11q-40,0-68.26,28.93t-28.28,70.22q0,41.92,28.12,70.86T3117,476.05Z"/><path class="cls-2" d="M3336.43,486.78q-25,0-44.86-11.38a64.1,64.1,0,0,1-28.28-31.86l10.07-5.2a56.53,56.53,0,0,0,24.22,27.31q16.74,9.75,38.85,9.75,25.35,0,41.93-13.16T3394.94,427a37.66,37.66,0,0,0-3.58-16.74,37.23,37.23,0,0,0-8.29-11.54q-4.71-4.23-13.81-8a139.72,139.72,0,0,0-15.61-5.52q-6.49-1.79-18.2-4.39-13-2.93-20.15-4.88a137.93,137.93,0,0,1-17.72-6.5q-10.56-4.55-16.09-10.08a50.33,50.33,0,0,1-9.75-14.62,49.66,49.66,0,0,1-4.23-21.13q0-24.06,19.51-40.64t46.15-16.57a78.17,78.17,0,0,1,41.12,11.05,64.63,64.63,0,0,1,26.82,31.2l-9.75,5.53q-7.8-17.55-23.08-27t-35.43-9.43q-21.45,0-37.38,13.33t-15.93,32.51a36.61,36.61,0,0,0,3.57,16.57,37.73,37.73,0,0,0,8.29,11.38q4.71,4.23,14,8t15.44,5.52q6.18,1.8,18.21,4.39,13,3.26,20,5.2a153.56,153.56,0,0,1,17.71,6.5q10.72,4.56,16.26,10.08a50.79,50.79,0,0,1,9.75,14.63A49.81,49.81,0,0,1,3407,427q0,27-19.83,43.39T3336.43,486.78Z"/><path class="cls-2" d="M3605.57,484.83h-128.4q-14,0-14-13.66V282q0-13.65,14-13.65h125.15v11.05h-127.1v91.67H3596.8v11.05l-121.58.32v91h130.35Z"/><path class="cls-3" d="M1172.53,692.63a61.7,61.7,0,0,1-23.61-23.07,67.6,67.6,0,0,1,0-66.1,61.68,61.68,0,0,1,23.61-23.06,68,68,0,0,1,33.68-8.36,70.72,70.72,0,0,1,25.43,4.45,52.37,52.37,0,0,1,19.79,13.17l-5.81,6q-15.25-15.07-39-15.07a58.84,58.84,0,0,0-29.06,7.26A53.2,53.2,0,0,0,1157,607.91a58.69,58.69,0,0,0,0,57.2,53.13,53.13,0,0,0,20.52,20.07,58.84,58.84,0,0,0,29.06,7.26q23.61,0,39-15.25l5.81,6a53.14,53.14,0,0,1-19.88,13.26,69.47,69.47,0,0,1-25.34,4.54A68,68,0,0,1,1172.53,692.63Z"/><path class="cls-3" d="M1355.31,610.09q9.26-5.54,22.52-5.54v8.9l-2.18-.18q-15.81,0-24.7,9.89t-8.9,27.52v49.39H1333V605.28h8.72V626A32.74,32.74,0,0,1,1355.31,610.09Z"/><path class="cls-3" d="M1515.3,613.54q9.43,9,9.44,26.42v60.11H1516V683.18a31.59,31.59,0,0,1-13.26,13q-8.71,4.62-20.88,4.63-15.81,0-25-7.45a24,24,0,0,1-9.18-19.61q0-11.81,8.45-19.16t27-7.35h32.5V639.6q0-13.26-7.17-20.16t-21-6.9a50.49,50.49,0,0,0-18.07,3.27,45.06,45.06,0,0,0-14.62,8.72l-4.54-6.54a50.38,50.38,0,0,1,17.07-9.9,62,62,0,0,1,20.88-3.54Q1505.85,604.55,1515.3,613.54Zm-12.08,74.36a33,33,0,0,0,12.44-15.8V654.31h-32.32q-14,0-20.25,5.08t-6.27,14q0,9.25,6.91,14.62t19.43,5.35Q1495,693.35,1503.22,687.9Z"/><path class="cls-3" d="M1626.26,591.47v13.81h30.32v7.8h-30.14v87h-9.08v-87h-17.43v-7.8h17.43V590.75q0-12,6.9-19.07t19.43-7.08a35.13,35.13,0,0,1,10.44,1.54,20.74,20.74,0,0,1,8.27,4.63l-3.64,6.9q-5.8-5.26-14.71-5.26Q1626.26,572.41,1626.26,591.47Z"/><path class="cls-3" d="M1775.53,694.08a22.78,22.78,0,0,1-8.62,5,34,34,0,0,1-10.81,1.73q-12.35,0-19.07-6.81t-6.72-19V613.08h-17.43v-7.8h17.43V584.57h9.08v20.71h30.15v7.8h-30.15v61q0,9.27,4.45,14.08T1757,693q8.9,0,14.71-5.27Z"/><path class="cls-3" d="M1853.44,580.12a6.84,6.84,0,0,1-2.18-5.17,7.44,7.44,0,0,1,7.44-7.45,7.35,7.35,0,0,1,5.27,2.09,6.89,6.89,0,0,1,2.18,5.18,7.44,7.44,0,0,1-7.45,7.44A7.28,7.28,0,0,1,1853.44,580.12Zm.72,25.16h9.08v94.79h-9.08Z"/><path class="cls-3" d="M2029.41,614.9q10.35,10.35,10.35,29.78v55.39h-9.08V645.41q0-16-8.08-24.34T2000,612.72q-16.71,0-26.33,10T1964,649.59v50.48H1955V605.28h8.72V625.8a36,36,0,0,1,14.62-15.62q9.7-5.62,23-5.63Q2019,604.55,2029.41,614.9Z"/><path class="cls-3" d="M2216.09,605.28V689.9q0,23.61-11.44,34.87T2170.14,736a75.49,75.49,0,0,1-24.69-4q-11.62-4-18.71-11.07l4.91-6.91a50,50,0,0,0,17.07,10.17,61.63,61.63,0,0,0,21.24,3.64q18.89,0,28-9T2207,691V675a40.28,40.28,0,0,1-16.16,16,47.78,47.78,0,0,1-23.25,5.63,49.39,49.39,0,0,1-24.06-5.9,43.43,43.43,0,0,1-17-16.44,48.95,48.95,0,0,1,0-47.58,42.91,42.91,0,0,1,17-16.34,50,50,0,0,1,24.06-5.81,48.08,48.08,0,0,1,23.61,5.81,39.69,39.69,0,0,1,16.16,16.34V605.28Zm-27.79,78.36a34.91,34.91,0,0,0,13.9-13.44,38.6,38.6,0,0,0,5-19.71,38.11,38.11,0,0,0-5-19.61,35.1,35.1,0,0,0-13.9-13.35,41.38,41.38,0,0,0-20-4.81,40.88,40.88,0,0,0-19.89,4.81,35.3,35.3,0,0,0-13.8,13.35,38.11,38.11,0,0,0-5,19.61,38.6,38.6,0,0,0,5,19.71,35.11,35.11,0,0,0,13.8,13.44,40.77,40.77,0,0,0,19.89,4.81A41.27,41.27,0,0,0,2188.3,683.64Z"/><path class="cls-3" d="M2501.75,637.06h8.89v47.57a55.35,55.35,0,0,1-20.24,12.17,75.31,75.31,0,0,1-25.16,4.18,69.37,69.37,0,0,1-34-8.35,61.36,61.36,0,0,1-23.79-23.07,67.67,67.67,0,0,1,0-66.1,61.33,61.33,0,0,1,23.79-23.06q15.17-8.35,34.24-8.36a71.92,71.92,0,0,1,25.69,4.45,55.07,55.07,0,0,1,20.07,13l-5.81,6.17a48,48,0,0,0-17.89-11.53,64.58,64.58,0,0,0-21.88-3.54,60.05,60.05,0,0,0-29.51,7.26,53.05,53.05,0,0,0-20.62,20.07,55.86,55.86,0,0,0-7.44,28.6,54.92,54.92,0,0,0,7.54,28.42,54.36,54.36,0,0,0,20.61,20.16,59,59,0,0,0,29.42,7.35q21.78,0,36.14-11.62Z"/><path class="cls-3" d="M2624.14,610.09q9.27-5.54,22.52-5.54v8.9l-2.18-.18q-15.8,0-24.7,9.89t-8.89,27.52v49.39h-9.08V605.28h8.71V626A32.84,32.84,0,0,1,2624.14,610.09Z"/><path class="cls-3" d="M2784.14,613.54q9.43,9,9.44,26.42v60.11h-8.72V683.18a31.51,31.51,0,0,1-13.25,13q-8.73,4.62-20.89,4.63-15.79,0-25-7.45a24,24,0,0,1-9.17-19.61q0-11.81,8.45-19.16t27-7.35h32.51V639.6q0-13.26-7.17-20.16t-21-6.9a50.53,50.53,0,0,0-18.07,3.27,45.27,45.27,0,0,0-14.62,8.72l-4.54-6.54a50.48,50.48,0,0,1,17.07-9.9,62.06,62.06,0,0,1,20.89-3.54Q2774.69,604.55,2784.14,613.54Zm-12.08,74.36a33.1,33.1,0,0,0,12.44-15.8V654.31h-32.32q-14,0-20.25,5.08t-6.27,14q0,9.25,6.9,14.62t19.43,5.35Q2763.8,693.35,2772.06,687.9Z"/><path class="cls-3" d="M2958.84,614.9q10.35,10.35,10.35,29.78v55.39h-9.08V645.41q0-16-8.08-24.34t-22.61-8.35q-16.71,0-26.34,10t-9.62,26.88v50.48h-9.08V605.28h8.72V625.8a36,36,0,0,1,14.61-15.62q9.72-5.62,23-5.63Q2948.48,604.55,2958.84,614.9Z"/><path class="cls-3" d="M3144.43,565.32V700.07h-8.9V677.73a40.62,40.62,0,0,1-15.8,17.07,44.53,44.53,0,0,1-23.06,6,47.15,47.15,0,0,1-24-6.18,44.07,44.07,0,0,1-16.79-17.07,50.09,50.09,0,0,1-6.09-24.88,50.65,50.65,0,0,1,6.09-25,43.41,43.41,0,0,1,16.79-17.07,47.79,47.79,0,0,1,24-6.08,43.79,43.79,0,0,1,22.79,6,42.77,42.77,0,0,1,15.89,16.71V565.32Zm-27.7,122.22a36.53,36.53,0,0,0,13.62-14.16,45.37,45.37,0,0,0,0-41.41,36.53,36.53,0,0,0-13.62-14.16,40,40,0,0,0-39,0A36.53,36.53,0,0,0,3064.07,632a45.45,45.45,0,0,0,0,41.41,36.53,36.53,0,0,0,13.62,14.16,40,40,0,0,0,39,0Z"/><path class="cls-3" d="M3316.22,654.85h-81.54a39.61,39.61,0,0,0,5.63,19.71,35.91,35.91,0,0,0,14.26,13.34,42.84,42.84,0,0,0,20.25,4.73,43.41,43.41,0,0,0,17.16-3.36,33.43,33.43,0,0,0,13.16-9.9l5.27,6a40.36,40.36,0,0,1-15.53,11.44,54,54,0,0,1-45.49-2.18,44.73,44.73,0,0,1-17.34-17.07,49,49,0,0,1-6.27-24.88,51.51,51.51,0,0,1,5.91-24.79,43.55,43.55,0,0,1,16.25-17.16,47,47,0,0,1,46.4-.09,43.33,43.33,0,0,1,16.16,17,51.09,51.09,0,0,1,5.9,24.7Zm-63-37.86a34,34,0,0,0-12.8,12.53,40.88,40.88,0,0,0-5.54,18.25h72.64a38.09,38.09,0,0,0-5.44-18.16,35.29,35.29,0,0,0-30.88-17.07A36.29,36.29,0,0,0,3253.2,617Z"/><path class="cls-3" d="M3480.93,605.28v94.79h-8.72V679.73a35.13,35.13,0,0,1-14,15.53q-9.26,5.54-21.79,5.54-18.53,0-29.06-10.35t-10.53-29.79V605.28h9.08v54.66q0,16,8.17,24.33t23.07,8.36q16,0,25.33-10t9.35-26.88V605.28Z"/><path class="cls-3" d="M3595.16,610.09q9.26-5.54,22.52-5.54v8.9l-2.18-.18q-15.81,0-24.7,9.89t-8.9,27.52v49.39h-9.08V605.28h8.72V626A32.74,32.74,0,0,1,3595.16,610.09Z"/><path class="cls-4" d="M647.64,292.94l-.17,0,.13,0Z"/><polygon class="cls-5" points="647.65 292.94 647.66 292.94 647.64 292.94 647.65 292.94"/><path class="cls-6" d="M948.68,547.11A178.86,178.86,0,0,1,899.24,647.3a175.86,175.86,0,0,1-124,52.82l-3.33,0c-164.28,0-226.56-109.72-226.56-218.25,0-72.34,31.63-146,98.9-187.07l.69-.42.08,0,2.39-1.27a1.91,1.91,0,0,0,.28-.15h.09l.15,0a.9.9,0,0,0,.16,0l.15,0,.14,0,.5-.11.07,0H649l.08,0,.07,0,.07,0h.07l.08,0,.07,0h.08l.07,0h.07l.08,0,.08,0h.07l.07,0H650l.07,0h.08l.08,0h.15l.08,0h.07l.08,0h.15l.08,0H651l.08,0h.39l.08,0h12.09l.1,0h.5l.1,0h.3l.11,0h.2l.1,0h.1l.1,0h.21l.1,0h.1l.11,0h.1l.1,0h.21l.1,0h.1l.11,0,.1,0h.1l.11,0h.1l.11,0,.1,0h.1l.11,0,.1,0h.11l.1,0,.11,0,.1,0H668l.1,0,.11,0,.11,0h.1l.11,0,.1,0,.11,0,.1,0,.11,0,.11,0,.11,0,.1,0h.11l.11,0,.1,0,.11,0,.11,0,.11,0h.1l.11,0,.11,0,.11,0,.11,0,.1,0,.11,0,.11,0,.11,0,.11,0h.11l.1,0,.11,0,.11,0,.11,0,.11,0,.11,0,.11,0,.11,0,.11,0,.11,0,.11,0,.11,0,.11,0,.11,0,.11,0,.12,0,.11,0,.11,0,.11,0,.11,0,.11,0,.11,0,.11,0,.12,0,.11,0,.11,0,.11,0,.12,0,.11,0,.11,0,.11,0,.11,0,.12,0,.11,0,.11,0,.12,0,.11,0,.11,0,.12,0,.11,0,.12,0,.11,0,.11,0,.12,0,.11,0a.35.35,0,0,1,.11,0l.12,0,.11,0,.12,0,.11,0,.12,0,.11,0,.12,0,.11,0,.12,0,.11,0,.12,0,.12,0,.11,0,.12,0,.11,0,.12,0,.12,0,.11,0,.12,0,.11,0,.12,0,.12,0,.11,0,.12,0,.12,0,.11,0,.12,0,.12,0,.12,0,.11,0,.12,0,.12,0,.12,0,.11,0,.12,0,.12,0,.12,0,.12,0,.12,0,.11,0,.12,0,.12,0,.12,0,.12,0,.12,0,.12,0,.12,0,.12,0,.11,0,.12,0,.13,0,.12,0,.11,0,.12,0,.12,0,.12,0,.12,0,.12,0,.13,0,.12,0,.12,0,.12,0,.12,0,.12,0,.12,0,.12,0,.12,0,.12,0,.12,0,.13,0,.12,0,.12,0,.12,0,.12,0,.12,0,.13,0,.12,0,.12,0,.12,0,.12,0,.13,0,.12,0,.12,0,.13,0,.12,0,.12,0,.13,0,.12,0,.12,0,.13,0,.12,0,.12,0,.13,0,.12,0,.12,0,.13,0,.12,0,.12,0,.13,0,.12,0,.13,0,.12,0,.12,0,.13,0,.12,0,.13,0,.12,0,.13,0,.12.05.13,0,.12,0,.13,0,.13,0,.12,0,.12,0,.13,0,.13,0,.12,0,.13,0,.12,0,.13.05.13,0,.12,0,.13,0,.12,0,.13,0,.13.05.12,0,.13,0,.13.05.13,0,.12,0,.13.05.13,0,.12,0,.13.05.13,0,.12.05.13,0,.13.05.13,0,.12,0,.13,0,.13.05.13,0,.12,0,.13,0,.13.05.13,0,.13.05.12,0,.13.05.13,0,.13.05.13.05.13,0,.13,0,.13.05.12,0,.13.05.13,0,.13.05.13.05.13.05.13,0,.13.05.13.05.13,0,.13,0,.13.05.13.05.13,0,.13.06.13,0,.13.05.13.05.13.05.13,0,.13,0,.13.05.13.05.13,0,.13.05.13.05.13.05.13,0,.13.06.13,0,.14.05.12.05.14,0,.13.05.13.05.13.05.13.05.13,0,.13.05.14.05.13.05.13.05.13,0,.13.06.13.05.14.05.13.05.13.05.13,0,.13.05.14.05.13.05.13.05.13.06.14,0,.13.05.13.05.13.05.14.05.13.06.13,0,.14.05.13.05.13.06.13.05.14,0,.13.05.13.06.14.05.13.05.13.06.14.05.13,0,.13.06.14.05.13.05.13.06.14.05.13.06.14,0,.13.05.14.06.13.05.13.05.14.06.13.05.13.06.14,0,.13.06.14.05.13.06.14.05.13.06.14.05.13.06.14,0,.13.06.14.05.13.06.14.05.13.06.14.05.13.06.14.06.13,0,.14.06.13.05.14.06.13.06.14.05.13.06.14.06.13.05.14.06.14.06.13,0,.14.06.13.06.14.05.14.06.13.06.14.06.13.05.14.06.14.06.13,0,.14.06.13.06.14.06.14.06.13.06.14.05.13.06.14.06.14.06.13.06.14.06.14.05.13.06.14.06.14.06.13.06.14.06.14.05.13.06.14.06.14.06.14.06.13.06.14.06.14.06.13.06.14.06.14.06.14.06.13.06.14.06.14.06.13.06.14.06.14.06.14.06.13.06.14.06.14.06.14.06.13.06.14.06.14.06.14.06.13.06.14.06.14.06.14.07.14.06.14.06.13.06.14.06.14.06.14.06a.75.75,0,0,0,.13.06l.14.07.14.06.14.06.14.06.14.06.14.07.13.06.14.06.14.06.14.06.14.07.13.06.14.06.14.06.14.07.14.06.14.06.13.06.14.07.14.06.14.06.14.07.14.06.14.06.14.06.14.07.13.06.14.06.14.07.14.06.14.06.14.07.14.06.14.06.14.07.13.06.14.06.14.07.14.06.14.07.14.06.14.07.14.06.14.06.14.07.13.06.14.07.14.06.14.07.14.06a.61.61,0,0,1,.14.07.84.84,0,0,1,.14.06l.14.06.14.07.14.06.14.07.14.06.14.07.14.06.14.07.14.06.13.07.14.06.14.07.14.06.14.07.14.07.14.06.14.07.14.06.14.07.14.06.14.07.14.07.14.06.14.07.14.06.14.07.14.07.14.06.14.07.14.06.14.07.14.07.13.06.14.07.14.07.14.06.14.07a.61.61,0,0,1,.14.07l.14.06.14.07.14.06.14.07.14.07a.61.61,0,0,1,.14.07l.14.06.14.07.14.07.14.06.14.07.14.07.14.07.14.06.14.07.14.07.14.06.14.07.14.07.14.07.14.07.14.06.14.07.14.07.14.07.14.06.14.07.14.07.14.07.14.07.14.06.14.07.14.07.14.07.14.07.14.06.14.07.14.07.14.07.14.07.14.07.14.07.14.06.14.07.14.07.14.07.14.07.14.07.14.06.14.07.14.07.14.07.14.07.14.07.14.07.14.07.14.07.14.07.14.07.14.06.14.07.14.07.14.07a.61.61,0,0,0,.14.07.61.61,0,0,0,.14.07l.14.07.13.07a.61.61,0,0,1,.14.07l.14.07.14.07.14.07.14.07.14.07.14.07.14.07.14.07.14.07.14.07.14.07.14.06.14.07.14.07.14.07.14.07.14.07.14.08.14.07.14.07.14.07.14.07.14.07.14.07.14.07.13.07.14.07.14.07.14.07.14.07.14.07.14.07.14.07.14.07.14.07.14.07.14.07a.61.61,0,0,0,.14.07.61.61,0,0,0,.14.07l.13.07.14.07.14.08a.61.61,0,0,1,.14.07l.14.07.14.07.14.07.14.07.14.07.14.07.13.07.14.07.14.07.14.07.14.08.14.07.14.07.14.07.14.07.13.07.14.07.14.08.14.07.14.07.14.07.14.07.14.07a.61.61,0,0,0,.14.07l.13.07.14.08a.61.61,0,0,1,.14.07l.14.07.14.07.14.07.13.07.14.07.14.07.14.08.14.07.14.07.14.07.13.07.14.08.14.07.14.07.14.07.13.07.14.07.14.08.14.07.13.07.14.07.14.07.14.07.14.08.14.07.13.07.14.07.14.08.14.07.13.07.14.07.14.07.14.07.13.08a.61.61,0,0,1,.14.07l.14.07.14.07.13.07.14.08.14.07.14.07.13.07.14.08.14.07.13.07.14.07.14.07.14.08.13.07.14.07.14.07.13.07.14.08.14.07.14.07.13.07.14.08.13.07.14.07.14.07.14.08.13.07.14.07.13.07.14.08.14.07.13.07.14.07.14.08.13.07.14.07.13.07.14.07.14.08.13.07.14.07.13.08.14.07.13.07.14.07.14.07.13.08.14.07.13.07.14.07.14.08.13.07.13.07.14.08.14.07.13.07.14.07.13.08.14.07.13.07.14.07.13.07.14.08.13.07.14.07.13.08.14.07.13.07.13.07.14.08.13.07.14.07.13.08.14.07.13.07.13.07.14.07.13.08.14.07.13.07.14.07.13.08.13.07.14.07.13.08.13.07.14.07.13.07.14.08.13.07.13.07.14.07.13.07.13.08.14.07.13.07.13.08.14.07.13.07.13.07.13.08.14.07.13.07.13.07.13.08.14.07.13.07.13.07.13.08.13.07.14.07.13.07.13.07.13.08.14.07.13.07.13.08.13.07.13.07.14.07.13.07.13.08.13.07.13.07.13.07.13.08.14.07.13.07.13.07.13.08.13.07.13.07.13.07.13.07.13.08.13.07.14.07.12.08.14.06a.57.57,0,0,0,.13.08l.13.07.13.07.13.07.13.08.13.07.13.07.13.07.13.07.13.08.13.07.13.07.13.07.13.08.12.07.14.07.12.07.13.07.13.07.13.08.13.07.13.07.13.07.13.07.12.08.13.07.13.07.13.07.13.07.13.08.13.07.13.07.12.07.13.07.13.07.13.07.12.08.13.07.13.07.13.07.13.07.12.07.13.07.13.08.12.07.13.07.13.07.13.07.12.07.13.08.13.07.12.07.13.07.12.07.13.07.13.07.12.07.13.07.13.08.12.07.13.07.12.07.13.07.13.07.12.07.12.07.13.07.13.07.12.07.13.08.12.07.13.07.12.07.13.07.12.07.13.07.12.07.12.07.13.07.12.07.13.07.12.07.13.07.12.07.12.07.13.07.12.07.12.07.13.08.12.07.13.07.12.07.12.07.13.07.12.07.12.07.12.07.13.07.12.07.12.07.13.07.12.07.12.07.12.07.12.07.13.07.12.07.12.07.12.06.12.07.12.07.13.07a.47.47,0,0,0,.12.07l.12.07.12.07.12.07.12.07.12.07.12.07.12.07.12.07.12.07.12.07.13.06a401096110914.71,401096110914.71,0,0,0,.24.14l.11.07.12.07.12.07.12.07.12.07.12.07.12.07.12.07.12.06.12.07.12.07.12.07.12.07.11.07.12.06.12.07.12.07.12.07.12.07.11.07.12.07.12.06.12.07.12.07.11.07.12.06.12.07.11.07.12.07.12.07.12.06.11.07.12.07.12.07.11.06.12.07.12.07.11.07.12.07.11.06.12.07.12.07.11.06.12.07.11.07.12.07.11.06.12.07.11.07.12.06.11.07.12.07.11.06.12.07.11.07.12.06a.41.41,0,0,0,.11.07l.11.07.12.06.11.07.11.07.12.06.11.07a.41.41,0,0,1,.11.07l.12.06.11.07a.41.41,0,0,1,.11.07l.12.06.11.07.11.06.11.07.12.07.11.06.11.07.11.06.12.07.11.06a.41.41,0,0,0,.11.07l.11.06.11.07a.41.41,0,0,1,.11.07l.11.06.11.06.12.07.11.07.11.06a.39.39,0,0,0,.11.06l.11.07.11.07.11.06.11.07.11.06.11.06.11.07.11.07a.6.6,0,0,1,.11.06l.11.06.11.07.11.06.11.07.11.06.1.07.11.06.11.06.11.07.11.06a.39.39,0,0,0,.11.06l.1.07.11.06.11.07.11.06.1.06.11.07.11.06.11.06a.41.41,0,0,0,.11.07l.1.06.11.06.1.07.11.06.11.06.1.07.11.06.11.06.1.07.11.06.11.06.1.06.11.07.1.06.11.06.1.06.11.07.1.06.1.06.11.06.1.07.11.06.1.06.11.06.1.06.11.06.1.07.1.06.11.06.1.06.1.06.1.06.11.07.1.06.1.06.11.06.1.06.1.06.1.06.1.06.1.07.11.05.1.07.1.06.1.06.1.06.1.06.1.06.1.06.1.06.1.06.11.06.1.06.09.06.1.06.11.06.09.06.1.06.1.06.1.06.1.06.1.05.1.06.1.06.1.06.09.06.1.06.1.06.1.06.1.06.09.06.1.05.1.06.09.06.1.06.1.06.1.06.09.05.1.06.1.06.09.06.1.06.09.05.1.06.09.06.1.06.09.06.1.05.1.06.09.06.1.05.09.06.09.06.1.06.09.05.1.06.09,0,.09.06.1.06.09.05.09.06.1.06.09.05.09.06.1.06.09,0,.09.06.09.05.09.06.09.05.1.06.09.06.09.05.09.06.09,0,.09.06.09.05.09.06.09.05.09.06.1.05.09.06.09.05.08.06.09.05.09.05.09.06.09.05.09.05.09.06.09,0,.09.06.08.05.09.06.09.05.09.05.08.06a.26.26,0,0,1,.09,0l.09.05.09.06.08.05.09.05.09.05.08.06.09,0,.09.05.08.05.09.06.09.05.08.05.09,0,.08.05.08.06a.26.26,0,0,1,.09.05l.09.05.08.05.08,0,.09.06.08.05.09.05.08.05.08,0,.09.05.08.05.08.05.09.05.08.06.08,0,.08.05.09.05.08.05.08.05.08,0,.08.05.08.05.09.05.08.05.08,0,.08.05.08.05.08.05.08,0,.08.05.08.05.08.05.08.05.08,0,.08.05.08.05.07.05.09,0,.07,0,.08.05.08.05.08.05.08,0,.07.05.08.05.08.05.08,0,.07.05.08.05.08.05.07,0,.08.05.07.05.08,0,.08,0,.07.05.08,0,.07.05.08.05.07,0,.08.05.07.05.08,0,.07.05.07,0,.08.05.07,0,.07,0,.08.05.07,0,.08,0,.07,0,.07.05.07,0,.07.05.08,0,.07,0,.07.05.07,0,.07.05.07,0,.07.05.07,0,.08,0,.07.05.07,0,.07,0,.07,0,.07,0,.06,0,.07,0,.07,0,.07,0,.07,0,.07,0,.07,0,.07,0,.07.05.06,0,.07,0,.07,0,.06,0,.07,0,.07.05.07,0,.06,0,.07,0,.06,0,.07,0,.07,0,.06,0,.07,0,.06,0,.07.05.06,0,.06,0,.07,0,.06,0,.07,0,.06,0,.07,0,.06,0,.06,0,.07,0,.06,0,.06,0,.06,0,.07,0,.06,0,.06,0,.06,0,.06,0,.06,0,.07,0,.06,0,.06,0,.06,0,.06,0,.06,0,.06,0,.06,0,.06,0,.06,0,.06,0,.06,0,0,0,.06,0,.06,0,.06,0,.06,0,.06,0a.1.1,0,0,0,0,0l.06,0,.06,0a.1.1,0,0,1,0,0l.06,0,.06,0,.05,0,.06,0,.05,0,.06,0,.06,0,.05,0,.06,0,.05,0,.06,0,.05,0,.06,0,.05,0,0,0,.06,0,.05,0,.06,0,.05,0,0,0,0,0,.06,0s0,0,0,0l.05,0,0,0,.05,0,.06,0,0,0,.05,0,0,0,.05,0,0,0,0,0,.05,0,0,0,.05,0,0,0,0,0,.05,0,0,0,.06,0,0,0,0,0,.05,0,0,0,0,0,.05,0,0,0,.05,0,0,0,0,0,.05,0,0,0,.05,0,0,0,0,0,0,0,0,0,0,0,.05,0,0,0,0,0,0,0,0,0s0,0,0,0l.05,0,0,0,0,0,0,0,0,0,0,0,0,0,0,0,0,0,0,0,0,0,0,0,0,0,0,0,0,0,0,0,0,0,0,0,0,0,0,0,0,0,0,0,0,0,0,0,0,0,0,0,0,0,0,0,0,0,0,0,0,0,0,0,0,0,0,0,0,0,0,0,0,0,0,0,0,0,0,0,0,0,0,0,0,0,0,0,0,0,0,0,0,0,0,0,0,0,0,0,0,0,0,0,0,0,0,0,0,0,0,0,0,0,0,0,0,0h0l0,0,0,0,0,0,0,0,0,0,0,0a0,0,0,0,1,0,0s0,0,0,0h0l0,0,0,0,0,0h0l0,0,0,0h0l0,0,0,0h0l0,0,0,0h0l0,0h0l0,0h0l0,0,0,0h0l0,0h0l0,0h0l0,0h0l0,0h0l0,0h0l0,0h.08l0,0h.09l0,0h.17v0h.3a134,134,0,0,0-22-8.79,148.82,148.82,0,0,0-42.65-6.17C704.86,360.31,661,400.64,661,481.89c0,53.37,27.87,119.2,111.49,119.2a189.81,189.81,0,0,0,23.58-1.49,64.79,64.79,0,0,0,56.48-64.36,8.86,8.86,0,0,0-8.86-8.88H793.52a46,46,0,1,1,0-91.92h69a87.89,87.89,0,0,1,79.61,50.62C951.2,504.4,951.58,526.3,948.68,547.11Z"/><path class="cls-7" d="M913.16,348.61l-21.21,21a49.67,49.67,0,0,1-57.87,8.55l-1.45-.75h0l0,0c-3.33-2.16-145.33-93.73-188.6-82.52,1-.48,2.19-1.15,3.69-1.95A233.89,233.89,0,0,1,708.1,270l.09,0a283.67,283.67,0,0,1,59.65-6c23.67,0,46.24,2,68.4,8.21,3.85,1.18,7.75,2.45,11.62,3.66,1.18.42,2.37.85,3.56,1.3,20.12,7.53,40,19,60.28,36A24,24,0,0,1,913.16,348.61Z"/></svg>